<svg xmlns="http://www.w3.org/2000/svg" width="16" height="16" viewBox="0 0 16 16">
  <g id="icon-img" transform="translate(-880 -452)">
    <rect id="사각형_2338" data-name="사각형 2338" width="16" height="16" transform="translate(880 452)" fill="#53ff81" opacity="0"/>
    <path id="패스_6647" data-name="패스 6647" d="M14.823,35.862H10.591l-.855-1.436a.463.463,0,0,0-.4-.226H6.65a.463.463,0,0,0-.4.226L5.4,35.862H4.009v-.316a.463.463,0,0,0-.463-.463H1.831a.463.463,0,0,0-.463.463v.316h-.2A1.165,1.165,0,0,0,0,37.027v8.437A1.165,1.165,0,0,0,1.165,46.63H14.823a1.165,1.165,0,0,0,1.165-1.165V37.027A1.165,1.165,0,0,0,14.823,35.862Zm-6.829,8.7a3.317,3.317,0,1,1,3.317-3.317A3.317,3.317,0,0,1,7.994,44.563Z" transform="translate(880 419.301)" fill="#5c5e70"/>
    <circle id="타원_350" data-name="타원 350" cx="2.317" cy="2.317" r="2.317" transform="translate(885.677 458.229)" fill="#5c5e70"/>
  </g>
</svg>
