<svg xmlns="http://www.w3.org/2000/svg" width="15" height="20" viewBox="0 0 15 20">
  <g id="icon-pin-gn" transform="translate(-415 -1182)">
    <rect id="사각형_23" data-name="사각형 23" width="15" height="20" transform="translate(415 1182)" fill="#fff" opacity="0"/>
    <path id="패스_154" data-name="패스 154" d="M-354.233-350.485a7.5,7.5,0,0,0-7.5,7.5c0,5.943,7.5,11.6,7.5,11.6s7.5-5.66,7.5-11.6A7.5,7.5,0,0,0-354.233-350.485Zm0,10.515a3.608,3.608,0,0,1-3.608-3.608,3.608,3.608,0,0,1,3.608-3.608,3.609,3.609,0,0,1,3.609,3.608A3.609,3.609,0,0,1-354.233-339.97Z" transform="translate(776.733 1532.933)" fill="#00eb79"/>
  </g>
</svg>
