<svg xmlns="http://www.w3.org/2000/svg" width="15" height="15" viewBox="0 0 15 15">
  <g id="icon-lock" transform="translate(-693 -1331)">
    <rect id="사각형_2345" data-name="사각형 2345" width="15" height="15" transform="translate(693 1331)" fill="#fff" opacity="0"/>
    <g id="padlock" transform="translate(657.815 1331)">
      <path id="패스_6882" data-name="패스 6882" d="M48.522,7.116a.986.986,0,0,0-.725-.3h-.341V4.773a4.593,4.593,0,0,0-1.406-3.366,4.733,4.733,0,0,0-6.733,0,4.593,4.593,0,0,0-1.406,3.366V6.818h-.341a1.018,1.018,0,0,0-1.023,1.023v6.136A1.018,1.018,0,0,0,37.571,15H47.8a1.018,1.018,0,0,0,1.023-1.023V7.841A.986.986,0,0,0,48.522,7.116Zm-3.111-.3H39.957V4.773a2.627,2.627,0,0,1,.8-1.928,2.727,2.727,0,0,1,3.857,0,2.628,2.628,0,0,1,.8,1.928Z" fill="#b8bac7"/>
    </g>
  </g>
</svg>
