<svg xmlns="http://www.w3.org/2000/svg" width="40" height="29.105" viewBox="0 0 40 29.105">
  <g id="icon-empty-update" transform="translate(0 -66.65)">
    <g id="그룹_6032" data-name="그룹 6032" transform="translate(0 66.65)">
      <path id="패스_6684" data-name="패스 6684" d="M31.255,95.755H22.673V87.083h2.836a.887.887,0,0,0,.719-1.406l-5.517-7.634a.879.879,0,0,0-1.43,0l-5.517,7.634a.885.885,0,0,0,.719,1.406h2.836v8.672H7.707C3.416,95.518,0,91.5,0,87.157a8.142,8.142,0,0,1,4.038-7.029,5.459,5.459,0,0,1-.335-1.9,5.536,5.536,0,0,1,5.541-5.541,5.447,5.447,0,0,1,1.9.335,11.094,11.094,0,0,1,21.079,3.662,9.651,9.651,0,0,1-.964,19.076Z" transform="translate(0 -66.65)" fill="#dddee6"/>
    </g>
  </g>
</svg>
