<svg xmlns="http://www.w3.org/2000/svg" width="26" height="26" viewBox="0 0 26 26">
  <g id="icon-msg-kakao" transform="translate(0.308 0.308)">
    <rect id="사각형_2053" data-name="사각형 2053" width="26" height="26" transform="translate(-0.308 -0.308)" fill="#fff" opacity="0"/>
    <g id="그룹_6053" data-name="그룹 6053" transform="translate(-649.712 -277.551)">
      <path id="패스_6686" data-name="패스 6686" d="M659.4,280.357c-5.523,0-10,3.539-10,7.906,0,2.842,1.9,5.332,4.744,6.726-.209.781-.757,2.829-.867,3.267-.135.544.2.537.419.39.172-.114,2.74-1.86,3.849-2.614a12.661,12.661,0,0,0,1.856.136c5.523,0,10-3.54,10-7.906s-4.477-7.906-10-7.906" transform="translate(3 0.886)" fill="#391b1b"/>
    </g>
  </g>
</svg>
