<svg xmlns="http://www.w3.org/2000/svg" width="15.001" height="15.001" viewBox="0 0 15.001 15.001">
  <g id="icon-pen" transform="translate(-8.522 -0.001)">
    <path id="패스_6639" data-name="패스 6639" d="M9.35,10.846a.491.491,0,0,0-.133.247L8.532,14.52a.484.484,0,0,0,.476.58.458.458,0,0,0,.095-.01l3.426-.685a.482.482,0,0,0,.248-.133L20.445,6.6,17.019,3.177Z" transform="translate(0 -0.098)" fill="#8e909f"/>
    <path id="패스_6640" data-name="패스 6640" d="M23.117.709a2.425,2.425,0,0,0-3.426,0L18.349,2.051l3.426,3.426,1.341-1.341a2.423,2.423,0,0,0,0-3.426Z" transform="translate(-0.302)" fill="#8e909f"/>
  </g>
</svg>
