<svg xmlns="http://www.w3.org/2000/svg" width="24" height="24" viewBox="0 0 24 24">
  <g id="icon-info" transform="translate(-433 -560)">
    <circle id="타원_341" data-name="타원 341" cx="12" cy="12" r="12" transform="translate(433 560)" fill="#b8bac7"/>
    <path id="타원_341_-_윤곽선" data-name="타원 341 - 윤곽선" d="M12,1A11,11,0,0,0,4.222,19.778,11,11,0,0,0,19.778,4.222,10.928,10.928,0,0,0,12,1m0-1A12,12,0,1,1,0,12,12,12,0,0,1,12,0Z" transform="translate(433 560)" fill="#8e909f"/>
    <path id="About" d="M1.44-10.76H4.56V0H1.44ZM3-12.26a1.979,1.979,0,0,1-1.4-.5A1.622,1.622,0,0,1,1.06-14a1.622,1.622,0,0,1,.54-1.24,1.979,1.979,0,0,1,1.4-.5,2.029,2.029,0,0,1,1.4.48,1.539,1.539,0,0,1,.54,1.2,1.7,1.7,0,0,1-.54,1.29A1.956,1.956,0,0,1,3-12.26Z" transform="translate(441.94 579.74)" fill="#fff"/>
  </g>
</svg>
