<svg xmlns="http://www.w3.org/2000/svg" width="26" height="26" viewBox="0 0 26 26">
  <g id="icon-msg-gr" transform="translate(-20 -20)">
    <rect id="사각형_2053" data-name="사각형 2053" width="26" height="26" transform="translate(20 20)" fill="#fff" opacity="0"/>
    <g id="icon_chat" transform="translate(20.61 21.61)">
      <path id="패스_4655" data-name="패스 4655" d="M134.993,20.231a10.574,10.574,0,0,0-8.482,4.012L138.988,37.39a9,9,0,0,0,6.17-8.221C145.158,24.233,140.607,20.231,134.993,20.231Z" transform="translate(-119.99 -20.231)" fill="#bdbdbd"/>
      <path id="패스_4656" data-name="패스 4656" d="M20.3,97.129c0-5.023-4.545-9.1-10.151-9.1S0,92.106,0,97.129a9.255,9.255,0,0,0,6.98,8.642l-.609,1.9a.2.2,0,0,0,.244.249L12.395,106C16.921,105.086,20.3,101.461,20.3,97.129Z" transform="translate(0 -84.754)" fill="#e0e0e0"/>
      <g id="그룹_4489" data-name="그룹 4489" transform="translate(3.919 11.21)">
        <circle id="타원_10" data-name="타원 10" cx="1.255" cy="1.255" r="1.255" transform="translate(5.104)" fill="#fff"/>
        <circle id="타원_11" data-name="타원 11" cx="1.255" cy="1.255" r="1.255" fill="#fff"/>
        <circle id="타원_12" data-name="타원 12" cx="1.255" cy="1.255" r="1.255" transform="translate(10.207)" fill="#fff"/>
      </g>
    </g>
  </g>
</svg>
