<svg xmlns="http://www.w3.org/2000/svg" xmlns:xlink="http://www.w3.org/1999/xlink" width="22.5" height="21" viewBox="0 0 22.5 21">
  <defs>
    <clipPath id="clip-path">
      <rect id="사각형_2310" data-name="사각형 2310" width="11.2" height="21" transform="translate(554.05 6137)" fill="red"/>
    </clipPath>
  </defs>
  <g id="icon-star-half" transform="translate(-554 -6137)">
    <path id="icon-star-gr" d="M10.4,1.354a1,1,0,0,1,1.7,0L14.97,5.942a1,1,0,0,0,.617.442l5.3,1.256a1,1,0,0,1,.525,1.629L17.9,13.323a1,1,0,0,0-.242.734l.421,5.329A1,1,0,0,1,16.7,20.392l-5.077-2.057a1,1,0,0,0-.751,0L5.8,20.392a1,1,0,0,1-1.372-1.006l.421-5.329a1,1,0,0,0-.242-.734L1.084,9.269a1,1,0,0,1,.525-1.629l5.3-1.256a1,1,0,0,0,.617-.442Z" transform="translate(554 6137)" fill="#dddee6"/>
    <g id="마스크_그룹_2" data-name="마스크 그룹 2" clip-path="url(#clip-path)">
      <path id="icon-star-yl" d="M10.4,1.354a1,1,0,0,1,1.7,0L14.97,5.942a1,1,0,0,0,.617.442l5.3,1.256a1,1,0,0,1,.525,1.629L17.9,13.323a1,1,0,0,0-.242.734l.421,5.329A1,1,0,0,1,16.7,20.392l-5.077-2.057a1,1,0,0,0-.751,0L5.8,20.392a1,1,0,0,1-1.372-1.006l.421-5.329a1,1,0,0,0-.242-.734L1.084,9.269a1,1,0,0,1,.525-1.629l5.3-1.256a1,1,0,0,0,.617-.442Z" transform="translate(554 6137)" fill="#ffd500"/>
    </g>
  </g>
</svg>
