<svg xmlns="http://www.w3.org/2000/svg" width="36" height="36" viewBox="0 0 36 36">
  <g id="icon-q" transform="translate(-439 -301)">
    <circle id="타원_356" data-name="타원 356" cx="18" cy="18" r="18" transform="translate(439 301)" fill="#171820"/>
    <path id="패스_6653" data-name="패스 6653" d="M6.56-6.5c0-4.9-2.44-7.76-6.56-7.76S-6.56-11.4-6.56-6.5-4.12,1.26,0,1.26a7.642,7.642,0,0,0,1.7-.18c1.04.94,1.8,1.8,2.68,2.72L6.36,2.32A30.818,30.818,0,0,0,3.96.02C5.64-1.24,6.56-3.48,6.56-6.5Zm-2.68,0C3.88-3.1,2.56-1.02,0-1.02S-3.88-3.1-3.88-6.5-2.56-11.98,0-11.98,3.88-9.9,3.88-6.5Z" transform="translate(457 325)" fill="#53ff81"/>
  </g>
</svg>
