<svg xmlns="http://www.w3.org/2000/svg" width="15" height="15" viewBox="0 0 15 15">
  <g id="icon-write" transform="translate(0 -1)">
    <g id="사각형_2240" data-name="사각형 2240" transform="translate(0 1)" fill="#fff" stroke="#707070" stroke-width="1" opacity="0">
      <rect width="15" height="15" stroke="none"/>
      <rect x="0.5" y="0.5" width="14" height="14" fill="none"/>
    </g>
    <g id="icon-write-2" data-name="icon-write" transform="translate(-7.521 2)">
      <path id="패스_6639" data-name="패스 6639" d="M9.239,9.822a.425.425,0,0,0-.115.214l-.594,2.97a.42.42,0,0,0,.412.5.4.4,0,0,0,.082-.008l2.969-.594a.418.418,0,0,0,.215-.115l6.645-6.645L15.886,3.177Z" transform="translate(0 -0.508)" fill="#171820"/>
      <path id="패스_6640" data-name="패스 6640" d="M22.481.615a2.1,2.1,0,0,0-2.969,0L18.349,1.777l2.969,2.969,1.162-1.162a2.1,2.1,0,0,0,0-2.969Z" transform="translate(-1.573 0)" fill="#171820"/>
    </g>
  </g>
</svg>
