<svg xmlns="http://www.w3.org/2000/svg" width="191.52" height="50" viewBox="0 0 191.52 50">
  <g id="img-join-invest" transform="translate(-2015.875 -541)">
    <rect id="사각형_2300" data-name="사각형 2300" width="191" height="50" transform="translate(2016 541)" fill="#fff" opacity="0"/>
    <path id="패스_6860" data-name="패스 6860" d="M-183.825-31.5h7.335L-182.79,0h-7.335Zm26.91,6.93a9.285,9.285,0,0,1,6.435,2.137,7.763,7.763,0,0,1,2.385,6.1,13.647,13.647,0,0,1-.315,2.925L-151.11,0h-7.02l2.61-12.96a7.263,7.263,0,0,0,.18-1.665,3.8,3.8,0,0,0-1.035-2.88,4.337,4.337,0,0,0-3.1-.99,6.56,6.56,0,0,0-4.478,1.552,8.1,8.1,0,0,0-2.408,4.658L-168.8,0h-7.02L-171-24.21h6.66l-.54,2.61A11.352,11.352,0,0,1-156.915-24.57Zm40.59.36L-131.355,0H-138.6l-5.355-24.21h6.93l3.51,16.515,10.17-16.515Zm23.67,10.305a18.955,18.955,0,0,1-.4,3.69H-111.6q.36,4.95,6.255,4.95a10.708,10.708,0,0,0,3.533-.585,9.013,9.013,0,0,0,2.948-1.665L-95.94-2.88a13.967,13.967,0,0,1-4.635,2.43,18.417,18.417,0,0,1-5.49.81,15.186,15.186,0,0,1-6.548-1.328,9.82,9.82,0,0,1-4.32-3.8,10.766,10.766,0,0,1-1.507-5.715,14.4,14.4,0,0,1,1.823-7.222,13.079,13.079,0,0,1,5.063-5.04,14.791,14.791,0,0,1,7.38-1.822,13.384,13.384,0,0,1,6.1,1.3,9.454,9.454,0,0,1,4,3.735A10.958,10.958,0,0,1-92.655-13.905Zm-11.835-5.4a6.618,6.618,0,0,0-4.185,1.327,7.155,7.155,0,0,0-2.43,3.668H-99.09a4.7,4.7,0,0,0-1.462-3.668A5.636,5.636,0,0,0-104.49-19.305ZM-81.855.36a24.7,24.7,0,0,1-5.963-.7A12.953,12.953,0,0,1-92.205-2.16l2.7-5.085A13.584,13.584,0,0,0-85.658-5.58a17.026,17.026,0,0,0,4.568.63,8.013,8.013,0,0,0,3.555-.608,1.889,1.889,0,0,0,1.17-1.732A1.374,1.374,0,0,0-77.4-8.6a21.241,21.241,0,0,0-3.33-.855,31.188,31.188,0,0,1-4.3-1.08,7.146,7.146,0,0,1-2.925-1.913,5.1,5.1,0,0,1-1.237-3.622,7.128,7.128,0,0,1,3.352-6.255,15.521,15.521,0,0,1,8.8-2.25,22.143,22.143,0,0,1,4.9.54,14.834,14.834,0,0,1,4.05,1.485l-2.52,5.13A13.294,13.294,0,0,0-77.76-19.26a7.216,7.216,0,0,0-3.488.675,1.97,1.97,0,0,0-1.192,1.71A1.437,1.437,0,0,0-81.405-15.5a21.136,21.136,0,0,0,3.465.923,32.119,32.119,0,0,1,4.207,1.057,6.918,6.918,0,0,1,2.857,1.868A5.011,5.011,0,0,1-69.66-8.1a7.036,7.036,0,0,1-3.4,6.255A15.9,15.9,0,0,1-81.855.36ZM-57.24-8.55a4.272,4.272,0,0,0-.09.99q0,2.34,2.565,2.34a5.53,5.53,0,0,0,2.835-.855l1.035,5A11.358,11.358,0,0,1-56.925.36a8.07,8.07,0,0,1-5.49-1.8,6.216,6.216,0,0,1-2.07-4.95,11.828,11.828,0,0,1,.225-2.115l1.935-9.765H-66.06l1.08-5.4h3.735l1.17-5.895h7.02l-1.17,5.895h6.03l-1.08,5.4h-6.03ZM-35.325.36A14.457,14.457,0,0,1-41.738-.99a10.057,10.057,0,0,1-4.275-3.8,10.649,10.649,0,0,1-1.507-5.693,13.872,13.872,0,0,1,1.89-7.2,13.6,13.6,0,0,1,5.22-5.04A15.243,15.243,0,0,1-32.9-24.57a14.421,14.421,0,0,1,6.435,1.35,10.084,10.084,0,0,1,4.253,3.8A10.649,10.649,0,0,1-20.7-13.725a14,14,0,0,1-1.867,7.2,13.394,13.394,0,0,1-5.22,5.04A15.37,15.37,0,0,1-35.325.36Zm.45-5.805A6.735,6.735,0,0,0-31.23-6.457,6.847,6.847,0,0,0-28.71-9.27a9.138,9.138,0,0,0,.9-4.14,5.29,5.29,0,0,0-1.44-3.915,5.476,5.476,0,0,0-4.05-1.44,6.816,6.816,0,0,0-3.69,1.013,6.847,6.847,0,0,0-2.52,2.813,9.138,9.138,0,0,0-.9,4.14,5.244,5.244,0,0,0,1.463,3.915A5.555,5.555,0,0,0-34.875-5.445ZM-7.65-21.33a9.109,9.109,0,0,1,3.8-2.475,16.164,16.164,0,0,1,5.243-.765L.135-18.09q-1.26-.09-1.62-.09a7.785,7.785,0,0,0-5.108,1.575A8.217,8.217,0,0,0-9.18-11.7L-11.52,0h-7.02l4.815-24.21h6.66Z" transform="translate(2206 580)" fill="#fff" opacity="0.08"/>
  </g>
</svg>
