<svg xmlns="http://www.w3.org/2000/svg" xmlns:xlink="http://www.w3.org/1999/xlink" width="202" height="91.108" viewBox="0 0 202 91.108">
  <defs>
    <filter id="합치기_2" x="0" y="0" width="202" height="91.108" filterUnits="userSpaceOnUse">
      <feOffset dy="5" input="SourceAlpha"/>
      <feGaussianBlur stdDeviation="4" result="blur"/>
      <feFlood flood-color="#dddee6" flood-opacity="0.502"/>
      <feComposite operator="in" in2="blur"/>
      <feComposite in="SourceGraphic"/>
    </filter>
  </defs>
  <g id="img-bb-sch" transform="translate(-403.002 -100)">
    <g transform="matrix(1, 0, 0, 1, 403, 100)" filter="url(#합치기_2)">
      <path id="합치기_2-2" data-name="합치기 2" d="M20,67.109a20,20,0,0,1-20-20v-13a20,20,0,0,1,20-20H158a20,20,0,0,1,20,20v13a20,20,0,0,1-20,20Zm6-53.067C31.135,1.139,42.233-.2,47.842.022c.951.037,1.279,1.557.506,2.256-4.322,3.91-4.494,10.309-4.47,11.832Z" transform="translate(190 74.11) rotate(180)" fill="#fff"/>
    </g>
    <path id="패스_6680" data-name="패스 6680" d="M9.672-1.716V-6.11h1.547v-1.2H9.672V-9.854H8.307v8.138ZM7.423-4.381C5.837-5.213,4.5-6.682,4.5-8.307V-9.594H3.068v1.287c0,1.6-1.261,3.3-3.2,4.329l.845.923A7.693,7.693,0,0,0,3.822-6.188a7.6,7.6,0,0,0,2.9,2.8ZM9.932,1.638V.468H3.419V-2.444H2.054V1.638Zm11.622-5.5V-9.854H20.189v2.262H18.2A2.943,2.943,0,0,0,15.158-9.8a2.873,2.873,0,0,0-3.094,2.86,2.873,2.873,0,0,0,3.094,2.86,2.913,2.913,0,0,0,3.068-2.366h1.963v2.587ZM21.528,1.69V-3.3H20.163v1.391H15.041V-3.3H13.676V1.69ZM16.9-6.942a1.621,1.621,0,0,1-1.742,1.729,1.617,1.617,0,0,1-1.729-1.729,1.624,1.624,0,0,1,1.729-1.729A1.627,1.627,0,0,1,16.9-6.942ZM20.163.533H15.041V-.793h5.122ZM32.422-4.992V-9.711H31.057V-8.4h-5.3V-9.711H24.388v4.719Zm1.313,2.236V-3.9H23.075v1.144H27.9V-.65h1.391V-2.756Zm-1.04,4.394V.468h-6.9V-1.9H24.427V1.638ZM31.057-6.123h-5.3V-7.306h5.3Zm12.922,2.21v-1.17H37.115V-6.188h6.669V-9.555H35.75V-8.4h6.669v1.066H35.75v3.419ZM42.562,1.768V-1.638H45.1V-2.8H34.437v1.157h2.522v3.3h1.365v-3.3H41.2V1.768Zm6.812-5.98a.936.936,0,0,0-.949-.975.925.925,0,0,0-.988.975.929.929,0,0,0,.949.975A.938.938,0,0,0,49.374-4.212ZM61-4.992V-9.711H59.631V-8.4h-5.3V-9.711H52.962v4.719Zm1.313,2.236V-3.9H51.649v1.144h4.823V-.65h1.391V-2.756Zm-1.04,4.394V.468h-6.9V-1.9H53V1.638ZM59.631-6.123h-5.3V-7.306h5.3Zm12.7,7.891v-4h1.612v-1.17H72.332V-6.461h1.612V-7.644H72.332v-2.21H70.967V1.768ZM63.154-4.888c0,2.912,1.2,4.6,3.12,4.6s3.133-1.69,3.133-4.6S68.2-9.5,66.274-9.5,63.154-7.813,63.154-4.888Zm3.12-3.445c1.17,0,1.768,1.248,1.768,3.445s-.6,3.432-1.768,3.432S64.519-2.7,64.519-4.888,65.117-8.333,66.274-8.333ZM83.915-5.317v-1.04H77.051v-.689H83.72V-9.7H75.686v1.04h6.669v.65H75.686v2.691Zm1.118,1.781v-1.04H74.373v1.04ZM83.98,1.69V.65H77.051V-.078H83.72V-2.743H75.686V-1.7h6.669v.676H75.686V1.69Zm15.08,0V.559H92.313V-.416H98.8V-3.51H90.948v1.118h6.487v.936H90.948V1.69ZM96.317-5.265c-1.677-.676-2.925-1.989-2.925-3.419v-.91h-1.43v.91c0,1.456-1.274,2.964-3.2,3.822l.819.949A7.025,7.025,0,0,0,92.716-6.7a6.731,6.731,0,0,0,2.938,2.444Zm2.509,1.2V-9.854H97.461v1.716H95.212v1.144h2.249v2.925ZM110.409-.494c0-1.716-1.755-2.548-4.225-2.548s-4.212.832-4.212,2.548,1.755,2.548,4.212,2.548S110.409,1.222,110.409-.494Zm-2.665-4.147c-1.625-.767-2.925-2.054-2.925-3.6V-8.32h2.444V-9.464h-6.318V-8.32h2.444v.078c0,1.456-1.274,3.094-3.2,4.056.286.312.572.611.845.923a7.449,7.449,0,0,0,3.107-2.951,6.841,6.841,0,0,0,2.9,2.561Zm1.274,4.147c0,.923-1,1.391-2.834,1.391s-2.821-.468-2.821-1.391,1-1.391,2.821-1.391S109.018-1.417,109.018-.494Zm1.17-2.678V-9.854h-1.365v2.483h-2v1.157h2v3.042Zm10.842,4.94V-3.965h1.651v-1.2H121.03V-9.854h-1.365V1.768Zm-2.418-8.775v-1.17h-2.743V-9.763H114.5v1.586H111.7v1.17ZM112.125-3.25A2.941,2.941,0,0,0,115.18-.091a2.951,2.951,0,0,0,3.068-3.159,2.951,2.951,0,0,0-3.068-3.159A2.941,2.941,0,0,0,112.125-3.25Zm3.055-2.015c1.118,0,1.69.806,1.69,2.015s-.572,2.015-1.69,2.015S113.5-2.041,113.5-3.25,114.075-5.265,115.18-5.265Zm17.732,3.6v-8.19h-1.365v1.391h-2.106v-1h-5.707V-3.64h5.707V-4.81h2.106v3.146Zm.26,3.3V.468H126.4v-2.86h-1.365v4.03Zm-5.1-6.422H125.1V-8.307h2.977Zm3.471-1.17h-2.106V-7.332h2.106ZM7.917,15.881a29.611,29.611,0,0,1-4.407.273H2.561V9.927H6.643V8.77H1.2v8.554H3.51a27.379,27.379,0,0,0,4.407-.312Zm2.275,3.887V8.146H8.827v4.043H5.746v1.17H8.827v6.409ZM22.074,16.9a7.227,7.227,0,0,1-2.964-5.252V9.94h2.509V8.77H15.184V9.94h2.5v1.7a7.752,7.752,0,0,1-3.12,5.551l.949.858a9.918,9.918,0,0,0,2.912-3.835,10.418,10.418,0,0,0,2.821,3.588Zm2.145,2.873V13.515H25.87v-1.2H24.219V8.146H22.854V19.768Zm8.06-2.912a7.908,7.908,0,0,1-2.288-5.213V8.718H28.6v2.925a8.189,8.189,0,0,1-2.626,5.525l.936.819A9.328,9.328,0,0,0,29.3,14.321a9.76,9.76,0,0,0,2.132,3.38Zm1.95,2.6V8.276H32.9v3.6H31.278v1.2H32.9v6.383Zm2.275.3V8.146H35.165V19.755ZM47.138,16.8V12.67h1.508v-1.2H47.138V8.146H45.773V16.8ZM44.72,10.265V9.134H41.977v-1.3H40.612v1.3H37.8v1.131Zm-3.458,4.992c1.82,0,3.042-.9,3.042-2.262s-1.222-2.275-3.042-2.275-3.042.9-3.042,2.275S39.429,15.257,41.262,15.257ZM47.4,19.638V18.494H40.885V16.076H39.52v3.562Zm-6.136-7.813c1.079,0,1.664.416,1.664,1.17s-.585,1.157-1.664,1.157-1.664-.4-1.664-1.157S40.183,11.825,41.262,11.825ZM62.114,19.69V15.179H54.327V19.69Zm-4.875-10c-.325,1.677-2,3.263-4.836,3.991.221.351.455.7.689,1.04,2.99-.806,5.629-2.86,5.629-6.188H53.092V9.693Zm4.9,4.875V8.146H60.775v2.99H58.591v1.17h2.184v2.262ZM60.749,18.52H55.692V16.336h5.057ZM73.71,14.828V8.146H72.371V10.72H71.149V8.276H69.836v6.552h1.313V11.9h1.222v2.925Zm-.026,4.992V15.439H65.442v1.17h6.877V19.82Zm-4.251-6.37a4.316,4.316,0,0,1-2.21-3.627V8.458H65.806V9.823a5.125,5.125,0,0,1-2.522,4.03l.871.884a6.845,6.845,0,0,0,2.379-2.73A6.505,6.505,0,0,0,68.705,14.4Zm15.431,6.318V8.146H83.5V19.768Zm-9.308-6.656c0,2.912,1.209,4.6,3.159,4.6s3.159-1.69,3.159-4.6S80.652,8.5,78.715,8.5,75.556,10.187,75.556,13.112Zm3.159-3.445c1.17,0,1.794,1.248,1.794,3.445s-.624,3.432-1.794,3.432-1.794-1.248-1.794-3.432S77.532,9.667,78.715,9.667Zm20.111,10.1V13.645H100.5v-1.2H98.826v-4.3H97.461V19.768Zm-8.281-1.82a10.594,10.594,0,0,0,5.07-9.178H90.168V9.94h4a9.194,9.194,0,0,1-4.563,7.1ZM110.5,11.89V10.746h-6.825V8.237H102.31V11.89Zm1.157,2.3V13.034H101v1.157Zm-5.33,5.863c2.548,0,4.264-.806,4.264-2.431s-1.716-2.431-4.264-2.431-4.264.819-4.264,2.431S103.779,20.054,106.327,20.054Zm0-3.705c1.872,0,2.86.442,2.86,1.274s-.988,1.287-2.86,1.287-2.86-.455-2.86-1.287S104.442,16.349,106.327,16.349Zm15.483-1.69V12.072h1.508V10.889H121.81V8.146h-1.365v6.513ZM119.392,9.94V8.835h-2.743V7.769h-1.365V8.835h-2.808V9.94Zm-3.458,4.524c1.82,0,3.042-.806,3.042-2.054s-1.222-2.054-3.042-2.054-3.042.806-3.042,2.054S114.1,14.464,115.934,14.464Zm5.85,5.226V15.218h-1.365v1.118h-4.862V15.218h-1.365V19.69Zm-5.85-8.255c1.079,0,1.664.338,1.664.975s-.585.988-1.664.988-1.664-.351-1.664-.988S114.855,11.435,115.934,11.435Zm4.485,7.111h-4.862V17.454h4.862Zm13.143,1.222V8.146H132.2V19.768Zm-1.885-3.952a29.611,29.611,0,0,1-4.407.273h-1.287V8.64h-1.365v8.619h2.652a27.38,27.38,0,0,0,4.407-.312Zm12.6,3.952V13.385h1.677v-1.2h-1.677V8.146h-1.365V19.768Zm-1.885-3.887a29.611,29.611,0,0,1-4.407.273H136.9V9.927h4.16V8.77h-5.525v8.554h2.444a27.379,27.379,0,0,0,4.407-.312Zm4.641,2.483a.995.995,0,1,0,1-.988A.982.982,0,0,0,147.03,18.364Z" transform="translate(429.131 129.455)" fill="#7a7c8d"/>
  </g>
</svg>
