<svg xmlns="http://www.w3.org/2000/svg" width="142.52" height="30.16" viewBox="0 0 142.52 30.16">
  <path id="img-check" d="M15.88.48A16.667,16.667,0,0,1,8.54-1.04,11.186,11.186,0,0,1,3.72-5.32a11.987,11.987,0,0,1-1.68-6.36,17,17,0,0,1,2.18-8.58,15.685,15.685,0,0,1,6.14-6.02,18.382,18.382,0,0,1,9.08-2.2,16.207,16.207,0,0,1,6.64,1.28,9.465,9.465,0,0,1,4.36,3.68l-4.68,3.84A7.636,7.636,0,0,0,19-22.96a10.234,10.234,0,0,0-5.44,1.44A9.873,9.873,0,0,0,9.9-17.6a11.706,11.706,0,0,0-1.3,5.52,6.651,6.651,0,0,0,2.06,5.14,8.209,8.209,0,0,0,5.78,1.9,9.73,9.73,0,0,0,7.44-3.24l3.84,3.92Q23.56.48,15.88.48Zm31-22.32a8.2,8.2,0,0,1,5.72,1.92,6.964,6.964,0,0,1,2.12,5.44,11.948,11.948,0,0,1-.28,2.56L52.04,0H45.8l2.32-11.52A6.457,6.457,0,0,0,48.28-13a3.378,3.378,0,0,0-.92-2.56,3.855,3.855,0,0,0-2.76-.88,5.831,5.831,0,0,0-3.98,1.38,7.2,7.2,0,0,0-2.14,4.14L36.32,0H30.08L36-29.68h6.24l-2,10.12A10.089,10.089,0,0,1,46.88-21.84Zm34.44,9.48a16.849,16.849,0,0,1-.36,3.28H64.48q.32,4.4,5.56,4.4a9.518,9.518,0,0,0,3.14-.52A8.011,8.011,0,0,0,75.8-6.68l2.6,4.12A12.415,12.415,0,0,1,74.28-.4,16.371,16.371,0,0,1,69.4.32,13.5,13.5,0,0,1,63.58-.86a8.729,8.729,0,0,1-3.84-3.38A9.57,9.57,0,0,1,58.4-9.32a12.8,12.8,0,0,1,1.62-6.42,11.625,11.625,0,0,1,4.5-4.48,13.148,13.148,0,0,1,6.56-1.62,11.9,11.9,0,0,1,5.42,1.16,8.4,8.4,0,0,1,3.56,3.32A9.741,9.741,0,0,1,81.32-12.36ZM70.8-17.16a5.883,5.883,0,0,0-3.72,1.18,6.36,6.36,0,0,0-2.16,3.26H75.6a4.18,4.18,0,0,0-1.3-3.26A5.01,5.01,0,0,0,70.8-17.16ZM94.44.32a13.176,13.176,0,0,1-5.8-1.2,8.917,8.917,0,0,1-3.82-3.38,9.466,9.466,0,0,1-1.34-5.06,12.331,12.331,0,0,1,1.68-6.4,12.014,12.014,0,0,1,4.68-4.48,13.859,13.859,0,0,1,6.76-1.64,11.833,11.833,0,0,1,5.94,1.42,8.948,8.948,0,0,1,3.74,4.02L101-13.76a4.907,4.907,0,0,0-4.8-2.92,6.161,6.161,0,0,0-3.3.9,6.177,6.177,0,0,0-2.28,2.5,7.867,7.867,0,0,0-.82,3.64,4.69,4.69,0,0,0,1.32,3.5,5.019,5.019,0,0,0,3.68,1.3,5.9,5.9,0,0,0,5.28-2.88l4.6,2.88a10.607,10.607,0,0,1-4.26,3.8A13.1,13.1,0,0,1,94.44.32ZM122.6-12.16,130,0h-7.24l-5.12-8.36-3.8,3.16L112.8,0h-6.24l5.92-29.68h6.24l-3.32,16.6,10.32-8.44h8.12ZM137.12-28h7.44L139.64-9.72h-4.96ZM135.72.32a3.7,3.7,0,0,1-2.64-.98,3.149,3.149,0,0,1-1.04-2.38A3.6,3.6,0,0,1,133.2-5.8a4.065,4.065,0,0,1,2.88-1.08,3.732,3.732,0,0,1,2.6.94,3.025,3.025,0,0,1,1.04,2.34,3.75,3.75,0,0,1-1.16,2.78A3.9,3.9,0,0,1,135.72.32Z" transform="translate(-2.04 29.68)" fill="#c7ffd6"/>
</svg>
