<svg xmlns="http://www.w3.org/2000/svg" width="100.02" height="11.28" viewBox="0 0 100.02 11.28">
  <path id="img-txt-checker" d="M3.36-8.865v3.2H8.43v1.65H3.36V0H1.41V-10.5H9.075v1.635ZM13.59-8.1a3.906,3.906,0,0,1,2.708.847A3.276,3.276,0,0,1,17.235-4.7V0h-1.77V-.975a2.181,2.181,0,0,1-.983.8,3.841,3.841,0,0,1-1.537.278A3.767,3.767,0,0,1,11.37-.2a2.434,2.434,0,0,1-1.043-.855A2.17,2.17,0,0,1,9.96-2.3a2.121,2.121,0,0,1,.8-1.733A3.985,3.985,0,0,1,13.29-4.68h2.07V-4.8a1.642,1.642,0,0,0-.5-1.29,2.174,2.174,0,0,0-1.492-.45,4.308,4.308,0,0,0-1.328.21,3.261,3.261,0,0,0-1.1.585L10.2-7.11a4.551,4.551,0,0,1,1.515-.735A6.741,6.741,0,0,1,13.59-8.1Zm-.255,6.84a2.421,2.421,0,0,0,1.252-.322,1.755,1.755,0,0,0,.773-.923v-.93H13.425q-1.62,0-1.62,1.065a.956.956,0,0,0,.4.81A1.857,1.857,0,0,0,13.335-1.26ZM23.385.105A4.7,4.7,0,0,1,21.15-.42,3.855,3.855,0,0,1,19.6-1.883a4.087,4.087,0,0,1-.555-2.122A4.047,4.047,0,0,1,19.6-6.12a3.884,3.884,0,0,1,1.538-1.455A4.684,4.684,0,0,1,23.385-8.1a4.32,4.32,0,0,1,2.077.48,3.114,3.114,0,0,1,1.343,1.38l-1.44.84a2.287,2.287,0,0,0-.863-.832A2.358,2.358,0,0,0,23.37-6.51a2.373,2.373,0,0,0-1.74.683,2.448,2.448,0,0,0-.69,1.822,2.463,2.463,0,0,0,.683,1.822A2.366,2.366,0,0,0,23.37-1.5,2.358,2.358,0,0,0,24.5-1.778a2.287,2.287,0,0,0,.863-.832l1.44.84A3.246,3.246,0,0,1,25.448-.383,4.234,4.234,0,0,1,23.385.105Zm9.96-.54a2.207,2.207,0,0,1-.8.405,3.614,3.614,0,0,1-1,.135,2.831,2.831,0,0,1-2.04-.69,2.656,2.656,0,0,1-.72-2.01V-6.45h-1.32v-1.5h1.32V-9.78H30.66v1.83h2.145v1.5H30.66v3.81a1.267,1.267,0,0,0,.285.893,1.069,1.069,0,0,0,.825.308,1.647,1.647,0,0,0,1.05-.33ZM44.07.15a5.913,5.913,0,0,1-2.873-.7,5.142,5.142,0,0,1-2.01-1.928A5.347,5.347,0,0,1,38.46-5.25a5.3,5.3,0,0,1,.735-2.775,5.2,5.2,0,0,1,2.017-1.927,5.913,5.913,0,0,1,2.873-.7,5.992,5.992,0,0,1,2.355.45,4.8,4.8,0,0,1,1.8,1.3L46.98-7.71a3.675,3.675,0,0,0-2.805-1.23,3.933,3.933,0,0,0-1.935.472A3.4,3.4,0,0,0,40.9-7.155a3.771,3.771,0,0,0-.48,1.9,3.771,3.771,0,0,0,.48,1.905A3.4,3.4,0,0,0,42.24-2.033a3.933,3.933,0,0,0,1.935.473A3.655,3.655,0,0,0,46.98-2.805l1.26,1.2A4.791,4.791,0,0,1,46.432-.3,6.047,6.047,0,0,1,44.07.15ZM54.48-8.1a3.347,3.347,0,0,1,2.43.885,3.491,3.491,0,0,1,.915,2.625V0H55.95V-4.35a2.249,2.249,0,0,0-.495-1.582,1.83,1.83,0,0,0-1.41-.533,2.165,2.165,0,0,0-1.635.622,2.481,2.481,0,0,0-.6,1.793V0H49.935V-11.13H51.81v4.05a3.05,3.05,0,0,1,1.147-.758A4.211,4.211,0,0,1,54.48-8.1ZM67.815-3.96q0,.2-.03.555H61.5A2.178,2.178,0,0,0,62.362-2a2.827,2.827,0,0,0,1.732.517,2.92,2.92,0,0,0,2.175-.87l1,1.155a3.386,3.386,0,0,1-1.365.975,4.972,4.972,0,0,1-1.86.33A4.95,4.95,0,0,1,61.725-.42a3.781,3.781,0,0,1-1.553-1.463,4.13,4.13,0,0,1-.548-2.122,4.191,4.191,0,0,1,.533-2.108,3.777,3.777,0,0,1,1.478-1.462,4.311,4.311,0,0,1,2.13-.525,4.2,4.2,0,0,1,2.093.517A3.665,3.665,0,0,1,67.3-6.128,4.412,4.412,0,0,1,67.815-3.96ZM63.765-6.6a2.262,2.262,0,0,0-1.522.533,2.24,2.24,0,0,0-.757,1.418H66.03a2.21,2.21,0,0,0-.735-1.41A2.235,2.235,0,0,0,63.765-6.6ZM73.29.105A4.7,4.7,0,0,1,71.055-.42,3.855,3.855,0,0,1,69.51-1.883a4.087,4.087,0,0,1-.555-2.122A4.047,4.047,0,0,1,69.51-6.12a3.884,3.884,0,0,1,1.537-1.455A4.684,4.684,0,0,1,73.29-8.1a4.32,4.32,0,0,1,2.077.48A3.114,3.114,0,0,1,76.71-6.24l-1.44.84a2.287,2.287,0,0,0-.863-.832,2.358,2.358,0,0,0-1.132-.278,2.373,2.373,0,0,0-1.74.683,2.448,2.448,0,0,0-.69,1.822,2.463,2.463,0,0,0,.683,1.822,2.366,2.366,0,0,0,1.747.683,2.358,2.358,0,0,0,1.132-.278,2.287,2.287,0,0,0,.863-.832l1.44.84A3.246,3.246,0,0,1,75.352-.383,4.234,4.234,0,0,1,73.29.105Zm8.235-3.54L80.13-2.115V0H78.255V-11.13H80.13v6.72l3.885-3.6h2.25L82.92-4.65,86.58,0H84.3Zm13.47-.525q0,.2-.03.555H88.68A2.178,2.178,0,0,0,89.542-2a2.827,2.827,0,0,0,1.732.517,2.92,2.92,0,0,0,2.175-.87l1,1.155a3.386,3.386,0,0,1-1.365.975,4.972,4.972,0,0,1-1.86.33A4.95,4.95,0,0,1,88.9-.42a3.781,3.781,0,0,1-1.552-1.463A4.13,4.13,0,0,1,86.8-4.005a4.191,4.191,0,0,1,.533-2.108,3.777,3.777,0,0,1,1.478-1.462,4.311,4.311,0,0,1,2.13-.525,4.2,4.2,0,0,1,2.092.517,3.665,3.665,0,0,1,1.44,1.455A4.412,4.412,0,0,1,94.995-3.96ZM90.945-6.6a2.262,2.262,0,0,0-1.522.533,2.24,2.24,0,0,0-.757,1.418H93.21a2.21,2.21,0,0,0-.735-1.41A2.235,2.235,0,0,0,90.945-6.6Zm7.635-.24a3.124,3.124,0,0,1,2.85-1.26v1.785a2.38,2.38,0,0,0-.435-.045,2.265,2.265,0,0,0-1.71.638,2.542,2.542,0,0,0-.615,1.837V0H96.795V-8.01H98.58Z" transform="translate(-1.41 11.13)" fill="#00eb79"/>
</svg>
