<svg xmlns="http://www.w3.org/2000/svg" width="223.394" height="199.924" viewBox="0 0 223.394 199.924">
  <g id="img-checker" transform="translate(-1120.17 -599.719)">
    <g id="그룹_6219" data-name="그룹 6219" transform="translate(-150.054 86.999)">
      <g id="그룹_6212" data-name="그룹 6212">
        <rect id="사각형_2275" data-name="사각형 2275" width="66.2" height="48.355" rx="8.159" transform="translate(1298.355 628.906)" fill="#fff" stroke="#171820" stroke-linecap="round" stroke-linejoin="round" stroke-width="1"/>
        <path id="패스_6849" data-name="패스 6849" d="M1298.355,636.489a8.159,8.159,0,0,1,8.159-8.159H1356.4a8.159,8.159,0,0,1,8.16,8.159" fill="#171820"/>
      </g>
      <g id="그룹_6213" data-name="그룹 6213">
        <rect id="사각형_2276" data-name="사각형 2276" width="66.2" height="48.355" rx="8.159" transform="translate(1279.934 643.873)" fill="#fff" stroke="#171820" stroke-linecap="round" stroke-linejoin="round" stroke-width="1"/>
        <path id="패스_6850" data-name="패스 6850" d="M1279.934,651.456a8.159,8.159,0,0,1,8.159-8.159h49.881a8.159,8.159,0,0,1,8.16,8.159" fill="#171820"/>
      </g>
      <g id="그룹_6214" data-name="그룹 6214">
        <circle id="타원_361" data-name="타원 361" cx="1.343" cy="1.343" r="1.343" transform="translate(1346.038 631.305)" fill="#fff" stroke="#171820" stroke-linecap="round" stroke-linejoin="round" stroke-width="1"/>
        <circle id="타원_362" data-name="타원 362" cx="1.343" cy="1.343" r="1.343" transform="translate(1351.027 631.305)" fill="#fff" stroke="#171820" stroke-linecap="round" stroke-linejoin="round" stroke-width="1"/>
        <circle id="타원_363" data-name="타원 363" cx="1.343" cy="1.343" r="1.343" transform="translate(1356.016 631.305)" fill="#fff" stroke="#171820" stroke-linecap="round" stroke-linejoin="round" stroke-width="1"/>
      </g>
      <g id="그룹_6215" data-name="그룹 6215">
        <circle id="타원_364" data-name="타원 364" cx="1.343" cy="1.343" r="1.343" transform="translate(1327.33 646.272)" fill="#fff" stroke="#171820" stroke-linecap="round" stroke-linejoin="round" stroke-width="1"/>
        <circle id="타원_365" data-name="타원 365" cx="1.343" cy="1.343" r="1.343" transform="translate(1332.318 646.272)" fill="#fff" stroke="#171820" stroke-linecap="round" stroke-linejoin="round" stroke-width="1"/>
        <circle id="타원_366" data-name="타원 366" cx="1.343" cy="1.343" r="1.343" transform="translate(1337.307 646.272)" fill="#fff" stroke="#171820" stroke-linecap="round" stroke-linejoin="round" stroke-width="1"/>
      </g>
      <g id="그룹_6218" data-name="그룹 6218">
        <g id="그룹_6216" data-name="그룹 6216">
          <rect id="사각형_2277" data-name="사각형 2277" width="66.2" height="48.355" rx="8.159" transform="translate(1270.723 639.843)" fill="#00eb79" stroke="#171820" stroke-linecap="round" stroke-linejoin="round" stroke-width="1"/>
          <path id="패스_6851" data-name="패스 6851" d="M1270.723,647.426a8.159,8.159,0,0,1,8.159-8.159h49.882a8.159,8.159,0,0,1,8.159,8.159" fill="#171820"/>
        </g>
        <path id="패스_6852" data-name="패스 6852" d="M1303.424,681.921a5.183,5.183,0,0,1-3.872-1.738l-9.21-10.362a5.181,5.181,0,1,1,7.744-6.884l4.158,4.678,9.992-19.7a5.181,5.181,0,0,1,9.241,4.687l-13.432,26.48a5.18,5.18,0,0,1-3.956,2.8A5.322,5.322,0,0,1,1303.424,681.921Z" fill="#fff" stroke="#171820" stroke-linecap="round" stroke-linejoin="round" stroke-width="1"/>
        <g id="그룹_6217" data-name="그룹 6217">
          <circle id="타원_367" data-name="타원 367" cx="1.343" cy="1.343" r="1.343" transform="translate(1319.462 642.498)" fill="#fff" stroke="#171820" stroke-linecap="round" stroke-linejoin="round" stroke-width="1"/>
          <circle id="타원_368" data-name="타원 368" cx="1.343" cy="1.343" r="1.343" transform="translate(1324.451 642.498)" fill="#fff" stroke="#171820" stroke-linecap="round" stroke-linejoin="round" stroke-width="1"/>
          <circle id="타원_369" data-name="타원 369" cx="1.343" cy="1.343" r="1.343" transform="translate(1329.44 642.498)" fill="#fff" stroke="#171820" stroke-linecap="round" stroke-linejoin="round" stroke-width="1"/>
        </g>
      </g>
    </g>
    <path id="패스_6819" data-name="패스 6819" d="M1146.734,696.031l35.977-29.357,29.932,11.225,36.552-30.22,35.4,16.405,54.972-60.153" fill="none" stroke="#53ff81" stroke-linecap="round" stroke-linejoin="round" stroke-width="2"/>
    <g id="그룹_6223" data-name="그룹 6223" transform="translate(1196.271 678.467)">
      <path id="패스_6820" data-name="패스 6820" d="M1284.962,799.643h-56.189c.005-2.847.125-5.711.024-8.548-.65-18.261-2.952-36.726,2.7-54.557,1.409-4.449,3.609-10.871,7.488-13.77,2.731-2.042,9.157-4.763,12.423-3.6,6.08,2.163,5.9,7.406,13.29,3.239,5.227-2.949,9.091-4.526,13.491.863,8.444,10.34,7.678,30.473,7.691,43.008C1285.889,777.332,1285.5,788.559,1284.962,799.643Z" transform="translate(-1191.057 -678.467)" fill="#171820"/>
      <g id="그룹_6209" data-name="그룹 6209" transform="translate(0 0)">
        <g id="그룹_6205" data-name="그룹 6205" transform="translate(56.275 0)">
          <path id="패스_6821" data-name="패스 6821" d="M1259.483,684.633c-2.211,3.138-5.692,7.676-3.024,11.213a10.234,10.234,0,0,1,3.127-6.281c1.552-1.435,6.061-1.405,5.464-4.125" transform="translate(-1254.258 -678.467)" fill="#171820" stroke="#131313" stroke-linecap="round" stroke-linejoin="round" stroke-width="1"/>
          <rect id="사각형_2272" data-name="사각형 2272" width="12.062" height="19.074" transform="translate(6.255 29.038)" fill="#fff" stroke="#171820" stroke-linecap="round" stroke-linejoin="round" stroke-width="1"/>
          <path id="패스_6822" data-name="패스 6822" d="M1248.349,715.944a12.331,12.331,0,0,1-8.2-15.4l2.045-6.708a12.341,12.341,0,0,1,15.405-8.2h0a12.342,12.342,0,0,1,8.206,15.405l-2.046,6.708a12.342,12.342,0,0,1-9.363,8.5" transform="translate(-1239.605 -678.467)" fill="#fff" stroke="#171820" stroke-linecap="round" stroke-linejoin="round" stroke-width="1"/>
          <path id="패스_6823" data-name="패스 6823" d="M1262.244,696.873c-.2.666-.592,1.138-.871,1.053s-.338-.694-.135-1.36.593-1.139.871-1.054S1262.448,696.206,1262.244,696.873Z" transform="translate(-1257.141 -678.467)" stroke="#171820" stroke-linecap="round" stroke-linejoin="round" stroke-width="1"/>
          <path id="패스_6824" data-name="패스 6824" d="M1252.558,700.095c-.2.667-.629,1.128-.949,1.03s-.418-.718-.214-1.385.628-1.128.951-1.03S1252.761,699.428,1252.558,700.095Z" transform="translate(-1237.611 -678.467)" stroke="#171820" stroke-linecap="round" stroke-linejoin="round" stroke-width="1"/>
          <path id="패스_6825" data-name="패스 6825" d="M1260.022,707.12c-.726,2.287-4.8,2.5-6.511,1.382" transform="translate(-1247.192 -678.467)" fill="none" stroke="#171820" stroke-linecap="round" stroke-linejoin="round" stroke-width="1"/>
          <g id="패스_6826" data-name="패스 6826" transform="translate(-1230.266 -678.467)" fill="#171820" stroke-linecap="round" stroke-linejoin="round">
            <path d="M 1251.9970703125 704.2861938476562 C 1251.9384765625 703.4536743164062 1252.105590820312 702.2979125976562 1252.206909179688 701.5975952148438 L 1252.236572265625 701.3912963867188 C 1252.354614257812 700.5654907226562 1252.558959960938 699.6969604492188 1252.756469726562 698.8570556640625 C 1252.904174804688 698.2294921875 1253.056762695312 697.5805053710938 1253.175170898438 696.9443969726562 C 1253.185913085938 696.88671875 1253.19775390625 696.8186645507812 1253.211059570312 696.7422485351562 C 1253.279052734375 696.3526000976562 1253.392700195312 695.700439453125 1253.59423828125 695.1782836914062 C 1253.768676757812 694.7260131835938 1253.970947265625 694.4666748046875 1254.14892578125 694.4666748046875 C 1254.156982421875 694.4666748046875 1254.165161132812 694.467041015625 1254.173583984375 694.4678344726562 L 1254.264770507812 693.4719848632812 C 1251.071166992188 693.1763305664062 1248.08203125 692.126953125 1245.327514648438 691.0369873046875 C 1243.339477539062 690.2493896484375 1241.057006835938 689.283935546875 1239.20361328125 688.095458984375 C 1237.167602539062 686.7898559570312 1236.0126953125 685.462158203125 1235.672607421875 684.0364379882812 C 1235.322875976562 682.5707397460938 1235.874633789062 680.9420166015625 1237.312622070312 679.1898803710938 C 1240.098510742188 681.6414184570312 1244.745849609375 682.5330200195312 1248.868774414062 683.3240356445312 C 1250.120727539062 683.5642700195312 1251.303344726562 683.7911376953125 1252.336669921875 684.0462646484375 C 1255.398559570312 684.802978515625 1259.0771484375 686.1282348632812 1260.35595703125 689.6889038085938 C 1260.446655273438 689.9404296875 1260.53515625 690.2078857421875 1260.619140625 690.4843139648438 C 1261.393798828125 693.031005859375 1261.073852539062 696.271240234375 1259.763549804688 699.15185546875 C 1258.977661132812 700.87353515625 1258.027587890625 702.0577392578125 1256.7841796875 703.302001953125 C 1256.459228515625 703.0638427734375 1256.047729492188 702.8724365234375 1255.845092773438 702.7781982421875 C 1255.508911132812 702.6217651367188 1254.669311523438 702.2578735351562 1254.137329101562 702.2578735351562 C 1254.018676757812 702.2578735351562 1253.915893554688 702.2748413085938 1253.822875976562 702.3097534179688 C 1253.08251953125 702.5883178710938 1252.699951171875 703.2013549804688 1252.362426757812 703.7421875 C 1252.23828125 703.9412231445312 1252.121826171875 704.1278076171875 1251.9970703125 704.2861938476562 Z" stroke="none"/>
            <path d="M 1237.388305664062 679.9026489257812 C 1236.286254882812 681.3726806640625 1235.872802734375 682.7211303710938 1236.158935546875 683.92041015625 C 1236.842895507812 686.7879028320312 1241.270751953125 688.89208984375 1245.511474609375 690.572021484375 C 1248.2314453125 691.6483154296875 1251.179931640625 692.6842651367188 1254.310791015625 692.97412109375 C 1254.8603515625 693.0249633789062 1255.264770507812 693.5114135742188 1255.214477539062 694.0609741210938 C 1255.168212890625 694.5667114257812 1254.753051757812 694.949951171875 1254.2587890625 694.9691772460938 C 1254.201416015625 695.0457153320312 1254.090087890625 695.23046875 1253.96875 695.6263427734375 C 1253.839721679688 696.0476684570312 1253.7578125 696.5173950195312 1253.70361328125 696.8281860351562 C 1253.68994140625 696.9066772460938 1253.677734375 696.9766845703125 1253.666748046875 697.0358276367188 C 1253.546142578125 697.68359375 1253.392211914062 698.3383178710938 1253.2431640625 698.9715576171875 C 1253.039184570312 699.8389892578125 1252.846435546875 700.6582641601562 1252.731567382812 701.4617309570312 L 1252.701782226562 701.669189453125 C 1252.66845703125 701.899658203125 1252.621337890625 702.2249145507812 1252.579467773438 702.58203125 C 1252.851196289062 702.2826538085938 1253.191284179688 702.0131225585938 1253.647216796875 701.8416137695312 C 1253.79736328125 701.7852783203125 1253.957641601562 701.7578735351562 1254.137329101562 701.7578735351562 C 1254.746459960938 701.7578735351562 1255.600952148438 702.1130981445312 1256.056030273438 702.3248291015625 C 1256.314697265625 702.4452514648438 1256.530639648438 702.5579223632812 1256.711303710938 702.6630249023438 C 1257.779296875 701.5587158203125 1258.613403320312 700.4675903320312 1259.308349609375 698.94482421875 C 1260.56982421875 696.1718139648438 1260.880981445312 693.0634155273438 1260.140747070312 690.6297607421875 C 1260.059204101562 690.3613891601562 1259.973388671875 690.10205078125 1259.885375976562 689.85791015625 C 1259.364013671875 688.4063110351562 1258.39697265625 687.2578125 1256.928833007812 686.3468627929688 C 1255.739868164062 685.609130859375 1254.242553710938 685.0323486328125 1252.216796875 684.5316772460938 C 1251.196166992188 684.2797241210938 1250.019897460938 684.0540161132812 1248.774536132812 683.8150634765625 C 1244.779052734375 683.0485229492188 1240.299072265625 682.1890258789062 1237.388305664062 679.9026489257812 M 1237.272583007812 678.4668579101562 C 1240.675537109375 681.880859375 1247.928588867188 682.44287109375 1252.45654296875 683.5608520507812 C 1255.9365234375 684.4208984375 1259.5185546875 685.8778686523438 1260.826538085938 689.5198974609375 C 1260.924560546875 689.7918701171875 1261.014526367188 690.0658569335938 1261.097534179688 690.3388671875 C 1261.979614257812 693.2388916015625 1261.459594726562 696.630859375 1260.218627929688 699.35888671875 C 1259.339599609375 701.2848510742188 1258.243530273438 702.5918579101562 1256.737548828125 704.0488891601562 C 1257.012573242188 703.7828369140625 1254.499267578125 702.5900268554688 1253.99853515625 702.7778930664062 C 1252.863525390625 703.2048950195312 1252.735595703125 704.73486328125 1251.677612304688 705.1688842773438 C 1251.282592773438 704.264892578125 1251.595581054688 702.3468627929688 1251.741577148438 701.3208618164062 C 1251.951538085938 699.8518676757812 1252.408569335938 698.3308715820312 1252.68359375 696.8529052734375 C 1252.811767578125 696.1649780273438 1253.101928710938 693.9668579101562 1254.14892578125 693.9666748046875 C 1254.171875 693.9666748046875 1254.194946289062 693.9677124023438 1254.218627929688 693.9698486328125 C 1251.064575195312 693.6778564453125 1248.072509765625 692.660888671875 1245.1435546875 691.5018920898438 C 1239.12060546875 689.1159057617188 1231.1416015625 685.3828735351562 1237.272583007812 678.4668579101562 Z" stroke="none" fill="#131313"/>
          </g>
          <g id="그룹_6204" data-name="그룹 6204" transform="translate(21.709 23.554)">
            <path id="패스_6827" data-name="패스 6827" d="M1238.428,705.048a4.164,4.164,0,0,1,2.812-3c1.331-.226,3.208.792,3.377,2.217.264,2.231-2.924,4.29-4.881,4.3" transform="translate(-1238.428 -702.021)" fill="#fff" stroke="#171820" stroke-linecap="round" stroke-linejoin="round" stroke-width="1"/>
            <path id="패스_6828" data-name="패스 6828" d="M1242.533,705.129a2.106,2.106,0,0,0-1.529,1.117" transform="translate(-1238.905 -702.021)" fill="none" stroke="#171820" stroke-linecap="round" stroke-linejoin="round" stroke-width="1"/>
          </g>
        </g>
        <path id="패스_6829" data-name="패스 6829" d="M1255.28,777.034" transform="translate(-1187.944 -678.467)" fill="none" stroke="#231100" stroke-linecap="round" stroke-miterlimit="10" stroke-width="1"/>
        <path id="패스_6830" data-name="패스 6830" d="M1243.843,721.129s11.444,64.72,12.356,66.11,7.375-68.083,7.375-68.083-5.13,5.13-6.314,4.736-3.284.558-3.284.558Z" transform="translate(-1184.801 -678.467)" fill="#fff" stroke="#171820" stroke-linecap="round" stroke-linejoin="round" stroke-width="1"/>
        <path id="패스_6831" data-name="패스 6831" d="M1260.515,726.654l-4.144,7.991,4.144,34.629-5.624,18.942-5.919-19.534,5.623-34.037-3.552-8.287,3.785-1.316,3.91-.558Z" transform="translate(-1186.872 -678.467)" fill="#53ff81" stroke="#171820" stroke-linecap="round" stroke-linejoin="round" stroke-width="1"/>
        <g id="그룹_6206" data-name="그룹 6206" transform="translate(59.111 40.228)">
          <path id="패스_6832" data-name="패스 6832" d="M1255.51,718.695c-1.338,1.17-.532,3.47-1.442,4.942-.114.184,4.362,5.715,4.719,6.536,1.415-1.595,4.264-3.62,4.717-5.723Z" transform="translate(-1254.066 -718.695)" fill="#fff" stroke="#171820" stroke-linecap="round" stroke-linejoin="round" stroke-width="1"/>
          <path id="패스_6833" data-name="패스 6833" d="M1249.63,718.695a18.635,18.635,0,0,1,3.81,3.758c.113.184-6.73,6.9-7.088,7.72-1.415-1.595-4.263-3.62-4.716-5.723Z" transform="translate(-1231.572 -718.695)" fill="#fff" stroke="#171820" stroke-linecap="round" stroke-linejoin="round" stroke-width="1"/>
        </g>
        <path id="패스_6834" data-name="패스 6834" d="M1260.22,718.564l-7.892,58.6-9.421-58.925-7.351,19.067,5.525,52.092,22.888,5.919s6.314-11.05,6.314-12.234l-.986-53.176-2.071-9.471Z" transform="translate(-1183.223 -678.467)" fill="#171820"/>
        <g id="그룹_6208" data-name="그룹 6208" transform="translate(0 22.951)">
          <g id="그룹_6207" data-name="그룹 6207" transform="translate(0)">
            <path id="패스_6835" data-name="패스 6835" d="M1300.466,704.87c1.76,2.086,3.746,5.7,6.057,7.108,1.543.939,6.124.609,6.425-1.765.276-2.175-4.248-4.241-5.792-5.246C1305.643,703.981,1300.914,701.15,1300.466,704.87Z" transform="translate(-1290.81 -701.418)" fill="#fff" stroke="#171820" stroke-linecap="round" stroke-linejoin="round" stroke-width="1"/>
            <path id="패스_6836" data-name="패스 6836" d="M1317.029,710.932a102.665,102.665,0,0,0-9.861-6.973c-1.554-.919-6.4-3.545-6.688.19l6.239,6.783,8.14,4.07" transform="translate(-1294.893 -701.418)" fill="#fff" stroke="#171820" stroke-linecap="round" stroke-linejoin="round" stroke-width="1"/>
            <path id="패스_6837" data-name="패스 6837" d="M1320.054,710.056c-3.65-2.6-8.016-6.157-12.429-7.236-2.93-.716-3.392,2.722-1.664,4.539,1.85,1.943,5.557,3.031,7.957,4.265l6.1,1.429" transform="translate(-1302.393 -701.418)" fill="#fff" stroke="#171820" stroke-linecap="round" stroke-linejoin="round" stroke-width="1"/>
            <path id="패스_6838" data-name="패스 6838" d="M1316.442,721.524c-.006-2.955-1.09-6.024-.99-8.843.077-2.2,2.345-4.815,4.057-6.035,1.184-.844,3.04-.915,3.1-2.867.055-1.622-1.312-2.2-2.764-2.341-3.889-.372-7.69,4.6-10.446,6.707-3.359,2.6-6.856.688-10.1-1.013-1.956-1.025-5.786-4.315-7.826-2.128-3.438,3.686,6.24,7.041,8.345,7.909,1.086.447,2.439.634,3.07,1.743l4.613,8.14" transform="translate(-1290.747 -701.418)" fill="#fff" stroke="#171820" stroke-linecap="round" stroke-linejoin="round" stroke-width="1"/>
            <path id="패스_6839" data-name="패스 6839" d="M1309.351,708.748a22.682,22.682,0,0,1-4.587,2.072" transform="translate(-1291.499 -701.418)" fill="none" stroke="#171820" stroke-linecap="round" stroke-linejoin="round" stroke-width="1"/>
          </g>
          <path id="패스_6840" data-name="패스 6840" d="M1297.562,713.79c-5.092,2.331-10.331,3.431-15.785,4.433-.1.017,1.261,11.413,1.4,12.411.5,3.632,1.267,7.23,1.738,10.866a121.62,121.62,0,0,0,2.14,13.576,30.777,30.777,0,0,0,6.378,11.79c1.983,2.316,5.807,2.477,8.566,1.954,3.1-.589,6.682-2.424,7.906-5.524a20.026,20.026,0,0,0,.789-9.5c-.745-6.63-3.136-12.957-5.434-19.174C1304.692,733.084,1297.323,713.9,1297.562,713.79Z" transform="translate(-1270.064 -701.418)" fill="#171820"/>
        </g>
        <path id="패스_6841" data-name="패스 6841" d="M1297.033,719.551c-17.654,0-27.169,17.324-31.52,33.147-.824,3-2.146,6.678.065,9.024,4.149,4.4,15.9,1.276,15.472-5.47" transform="translate(-1238.781 -678.467)" fill="#171820"/>
      </g>
      <g id="그룹_6211" data-name="그룹 6211" transform="translate(68.105 73.575)">
        <g id="그룹_6210" data-name="그룹 6210" transform="translate(0 0)">
          <rect id="사각형_2273" data-name="사각형 2273" width="37.532" height="28.74" transform="translate(36.663 41.286) rotate(-160.803)" fill="#fff" stroke="#231100" stroke-miterlimit="10" stroke-width="1"/>
          <rect id="사각형_2274" data-name="사각형 2274" width="37.531" height="28.74" transform="translate(33.648 42.392) rotate(-153.707)" fill="#00eb79" stroke="#171820" stroke-linecap="round" stroke-linejoin="round" stroke-width="1"/>
        </g>
      </g>
      <path id="패스_6842" data-name="패스 6842" d="M1234.146,780.916c-.859,1.334-.217,3.547-1.987,4.246-1.193.471-3.03-1.178-4.1-.457-1.033.7.228,2.354.643,2.944,1.557,2.216,4.5,4.824,7.32,4.985a7.951,7.951,0,0,0,6.183-2.245c1.318-1.529,1.137-3.449,1.608-5.329" transform="translate(-1148.862 -678.467)" fill="#fff" stroke="#171820" stroke-linecap="round" stroke-linejoin="round" stroke-width="1"/>
      <path id="패스_6843" data-name="패스 6843" d="M1238.515,787.427l-.7,2.96s-9.612-4.341-11.535-7.1l1.223-2.368" transform="translate(-1142.182 -678.467)" fill="#fff" stroke="#171820" stroke-linecap="round" stroke-linejoin="round" stroke-width="1"/>
      <path id="패스_6844" data-name="패스 6844" d="M1220.3,785.4c3.652,1.934,8.069,3.74,10.869,4.169,2.968-5.84,6.172-10.719,8.448-16.876,2.367-6.4,4.14-13.234,2.219-20.195-1.19-4.313-3.786-8.341-6.032-12.372-4.008-7.192-8.276-14.92-17.19-18.8-8.662-3.768-7.767,5.8-6.977,10.29.863,4.915,3,9.62,5.365,14.241,2.2,4.3,6.036,9.433,6.947,13.982.626,3.124-1.79,6.888-2.772,9.723-.283.821-5.515,12.982-5.8,12.751A32.55,32.55,0,0,0,1220.3,785.4Z" transform="translate(-1131.189 -678.467)" fill="#171820"/>
      <path id="패스_6845" data-name="패스 6845" d="M1248.605,699.051c-.989,2.688-.339,5.4,1.451,6.059s4.043-.987,5.032-3.675.339-5.4-1.452-6.059S1249.593,696.363,1248.605,699.051Z" transform="translate(-1181.078 -678.467)" fill="none" stroke="#171820" stroke-linecap="round" stroke-linejoin="round" stroke-width="1"/>
      <path id="패스_6846" data-name="패스 6846" d="M1257.624,695.405c-.989,2.688-.338,5.4,1.452,6.059s4.043-.987,5.031-3.674.339-5.4-1.451-6.06S1258.612,692.717,1257.624,695.405Z" transform="translate(-1199.116 -678.467)" fill="none" stroke="#171820" stroke-linecap="round" stroke-linejoin="round" stroke-width="1"/>
      <path id="패스_6847" data-name="패스 6847" d="M1257.483,698.464a14.744,14.744,0,0,0-2.3-.959" transform="translate(-1190.048 -678.467)" fill="none" stroke="#171820" stroke-linecap="round" stroke-linejoin="round" stroke-width="1"/>
      <line id="선_968" data-name="선 968" x1="5.997" y1="1.343" transform="translate(74.01 22.969)" fill="none" stroke="#171820" stroke-linecap="round" stroke-linejoin="round" stroke-width="1"/>
      <path id="패스_6848" data-name="패스 6848" d="M1260.361,695.394l-4.317,8.059,2.59.288" transform="translate(-1193.79 -678.467)" fill="none" stroke="#171820" stroke-linecap="round" stroke-linejoin="round" stroke-width="1"/>
    </g>
    <circle id="타원_370" data-name="타원 370" cx="3.07" cy="3.07" r="3.07" transform="translate(1179.578 664.309)" fill="#fff" stroke="#171820" stroke-linecap="round" stroke-linejoin="round" stroke-width="1"/>
    <circle id="타원_371" data-name="타원 371" cx="3.07" cy="3.07" r="3.07" transform="translate(1208.36 675.438)" fill="#fff" stroke="#171820" stroke-linecap="round" stroke-linejoin="round" stroke-width="1"/>
    <circle id="타원_372" data-name="타원 372" cx="3.07" cy="3.07" r="3.07" transform="translate(1246.737 645.12)" fill="#fff" stroke="#171820" stroke-linecap="round" stroke-linejoin="round" stroke-width="1"/>
    <circle id="타원_373" data-name="타원 373" cx="3.07" cy="3.07" r="3.07" transform="translate(1336.923 600.219)" fill="#00eb79" stroke="#171820" stroke-linecap="round" stroke-linejoin="round" stroke-width="1"/>
    <g id="그룹_6221" data-name="그룹 6221" transform="translate(141.82 -23.969)">
      <path id="패스_6853" data-name="패스 6853" d="M1195.772,723.986a.11.11,0,0,0,.012-.021c.008-.013.013-.027.021-.041a7.76,7.76,0,0,0,.429-.907,16.693,16.693,0,1,0-30.254.225,7.573,7.573,0,0,0,.442.9c.007.014.014.028.021.041s.008.016.012.021c.016.028.032.051.049.078a16.622,16.622,0,0,0,2.02,2.83c1.037,1.289,2.193,2.588,3.654,4.534a14.783,14.783,0,0,1,2.839,6.6l6.2-.046,6.2-.046a14.8,14.8,0,0,1,2.741-6.641c1.431-1.968,2.568-3.285,3.586-4.588a16.624,16.624,0,0,0,1.978-2.86C1195.741,724.037,1195.756,724.013,1195.772,723.986Z" fill="#53ff81" stroke="#171820" stroke-linecap="round" stroke-linejoin="round" stroke-width="1"/>
      <line id="선_969" data-name="선 969" x2="3.282" y2="13.129" transform="translate(1174.011 726.232)" fill="none" stroke="#231100" stroke-linecap="round" stroke-miterlimit="10" stroke-width="1"/>
      <line id="선_970" data-name="선 970" x1="3.282" y2="13.129" transform="translate(1184.375 726.232)" fill="none" stroke="#231100" stroke-linecap="round" stroke-miterlimit="10" stroke-width="1"/>
      <path id="패스_6854" data-name="패스 6854" d="M1179.415,741.465c1.88.177,3.718-.439,4.51-2.246.343-.782.844-2.732-.231-3.077-1.818-.583-3.516,6.439,1.552,5.14,2.942-.754,4.818-7.2,2.077-5.676-3.193,1.774.546,8.423,3.493,4.131" transform="translate(-4.713 -11.26)" fill="none" stroke="#231100" stroke-linecap="round" stroke-miterlimit="10" stroke-width="1"/>
      <path id="패스_6855" data-name="패스 6855" d="M1170.392,714.391a14.649,14.649,0,0,0-1.726,9.018" transform="translate(-1.306 -4.691)" fill="none" stroke="#fff" stroke-linecap="round" stroke-miterlimit="10" stroke-width="2"/>
      <path id="패스_6856" data-name="패스 6856" d="M1179.289,704.887" transform="translate(-4.673 -1.715)" fill="none" stroke="#fff" stroke-linecap="round" stroke-miterlimit="10" stroke-width="1"/>
      <path id="패스_6857" data-name="패스 6857" d="M1173.443,709.718A8.268,8.268,0,0,1,1175,707.9" transform="translate(-2.843 -2.66)" fill="none" stroke="#fff" stroke-linecap="round" stroke-miterlimit="10" stroke-width="2"/>
      <g id="그룹_6220" data-name="그룹 6220" transform="translate(1173.949 737.588)">
        <path id="패스_6858" data-name="패스 6858" d="M1192.868,761.457a1.3,1.3,0,0,1-.02-2.591,1.3,1.3,0,1,1-.018-2.591,1.3,1.3,0,0,0-1.305-1.287l-11.919.089a2.9,2.9,0,0,1-1.267,3.9,1.3,1.3,0,0,1,.019,2.591,1.3,1.3,0,0,0,1.305,1.285l.458,0a1.193,1.193,0,0,0-.451.866c.008,1.253,2.724,2.248,6.062,2.224s6.038-1.061,6.029-2.312a1.192,1.192,0,0,0-.463-.86l.284,0A1.3,1.3,0,0,0,1192.868,761.457Z" transform="translate(-1178.319 -754.988)" fill="#171820"/>
      </g>
    </g>
  </g>
</svg>
