<svg xmlns="http://www.w3.org/2000/svg" xmlns:xlink="http://www.w3.org/1999/xlink" width="459.069" height="85" viewBox="0 0 459.069 85">
  <defs>
    <linearGradient id="linear-gradient" x1="1.016" y1="-0.066" x2="-0.241" y2="1.156" gradientUnits="objectBoundingBox">
      <stop offset="0" stop-color="#01ff84"/>
      <stop offset="1" stop-color="#178116"/>
    </linearGradient>
    <linearGradient id="linear-gradient-2" x1="1.016" y1="-0.066" x2="-0.241" y2="1.156" xlink:href="#linear-gradient"/>
    <linearGradient id="linear-gradient-3" x1="0.725" y1="0.259" x2="0.215" y2="1.056" xlink:href="#linear-gradient"/>
  </defs>
  <g id="logo_bk" data-name="logo=bk" transform="translate(719.588 -439.826)">
    <g id="그룹_4736" data-name="그룹 4736">
      <g id="그룹_4734" data-name="그룹 4734">
        <path id="패스_128" data-name="패스 128" d="M-624.053,476.373v17.258h26.408v8.913h-26.408v21.715H-634.21V467.541h39.925v8.832Z" fill="#212121"/>
        <path id="패스_129" data-name="패스 129" d="M-554.127,498.9v25.361h-9.219v-5.267c-2.344,3.728-6.876,5.834-13.127,5.834-9.532,0-15.548-5.429-15.548-12.964,0-7.211,4.689-12.883,17.345-12.883h10.783v-.648c0-5.915-3.438-9.4-10.392-9.4a20.171,20.171,0,0,0-12.657,4.295l-3.829-7.374c4.453-3.565,10.939-5.348,17.658-5.348C-561.081,480.505-554.127,486.42-554.127,498.9Zm-9.766,11.83V505.7h-10.08c-6.64,0-8.437,2.593-8.437,5.753,0,3.646,2.968,6,7.969,6C-569.675,517.453-565.535,515.184-563.893,510.728Z" fill="#212121"/>
        <path id="패스_130" data-name="패스 130" d="M-547.018,502.626c0-12.965,9.376-22.121,22.58-22.121,8.125,0,14.61,3.484,17.814,10.048l-7.5,4.537a11.718,11.718,0,0,0-10.392-6c-7.188,0-12.657,5.186-12.657,13.532,0,8.426,5.469,13.53,12.657,13.53a11.717,11.717,0,0,0,10.392-5.995l7.5,4.537c-3.2,6.482-9.689,10.128-17.814,10.128C-537.642,524.826-547.018,515.59-547.018,502.626Z" fill="#212121"/>
        <path id="패스_131" data-name="패스 131" d="M-471.779,521.909a14.962,14.962,0,0,1-9.375,2.917c-9.142,0-14.377-5.023-14.377-14.585V489.418h-6.875v-8.1h6.875v-9.885h9.767v9.885h11.172v8.1h-11.172V510c0,4.213,2.031,6.482,5.782,6.482a8.568,8.568,0,0,0,5.469-1.783Z" fill="#212121"/>
      </g>
      <g id="그룹_4735" data-name="그룹 4735">
        <path id="패스_132" data-name="패스 132" d="M-461,519.155l1.8-3.241a23.2,23.2,0,0,0,14.688,5.1c8.6,0,12.033-3.16,12.033-7.94,0-12.316-27.034-3.241-27.034-19.851,0-6.4,5.156-11.587,15.47-11.587,5.156,0,10.782,1.62,13.985,4.132l-1.8,3.241a20.478,20.478,0,0,0-12.267-3.808c-7.969,0-11.485,3.4-11.485,7.94,0,12.722,27.034,3.727,27.034,19.852,0,6.887-5.7,11.586-16.1,11.586C-451.388,524.583-457.794,522.233-461,519.155Z" fill="#212121"/>
        <path id="패스_133" data-name="패스 133" d="M-385.055,499.546v24.713h-3.906V499.87c0-9.56-4.923-14.584-13.2-14.584-9.61,0-15.47,6.4-15.47,16.448v22.525h-3.906V464.138h3.906V490.8c2.813-5.752,8.438-9.155,16.017-9.155C-391.7,481.64-385.055,487.717-385.055,499.546Z" fill="#212121"/>
        <path id="패스_134" data-name="패스 134" d="M-338.022,504.083H-373.1c.391,10.048,7.5,16.854,17.267,16.854a16.188,16.188,0,0,0,13.048-5.915l2.266,2.674c-3.594,4.537-9.219,6.887-15.391,6.887-12.345,0-21.018-8.913-21.018-21.472s8.36-21.471,19.533-21.471,19.455,8.75,19.455,21.31C-337.943,503.274-338.022,503.679-338.022,504.083Zm-35-3.159h31.252c-.547-9.156-6.953-15.719-15.626-15.719S-372.4,491.687-373.024,500.924Z" fill="#212121"/>
        <path id="패스_135" data-name="패스 135" d="M-292.16,504.083h-35.081c.391,10.048,7.5,16.854,17.267,16.854a16.191,16.191,0,0,0,13.048-5.915l2.266,2.674c-3.594,4.537-9.219,6.887-15.392,6.887-12.345,0-21.017-8.913-21.017-21.472s8.36-21.471,19.533-21.471,19.455,8.75,19.455,21.31C-292.081,503.274-292.16,503.679-292.16,504.083Zm-35-3.159h31.253c-.547-9.156-6.954-15.719-15.626-15.719S-326.537,491.687-327.163,500.924Z" fill="#212121"/>
        <path id="패스_136" data-name="패스 136" d="M-260.519,521.585a12.1,12.1,0,0,1-8.36,3c-7.188,0-11.1-4.375-11.1-11.505v-27.63h-7.5v-3.484h7.5v-9.237h3.907v9.237H-263.1v3.484h-12.969v27.225c0,5.428,2.578,8.426,7.579,8.426a9.171,9.171,0,0,0,6.328-2.35Z" fill="#212121"/>
      </g>
    </g>
    <g id="그룹_4738" data-name="그룹 4738">
      <path id="패스_137" data-name="패스 137" d="M-672.267,460.072h-47.321v47.321a16.788,16.788,0,0,0,2.81,9.315,16.837,16.837,0,0,0,13.44,7.519h.012c.2.008.4.031.6.031H-655.4V476.938A16.866,16.866,0,0,0-672.267,460.072Z" fill="#212121"/>
      <path id="패스_138" data-name="패스 138" d="M-680.311,453.227h14.041a6.7,6.7,0,0,0,6.334-4.514l3.068-8.887h-18.887C-677.1,443.786-678.667,448.391-680.311,453.227Z" fill="url(#linear-gradient)"/>
      <g id="그룹_4737" data-name="그룹 4737">
        <path id="패스_139" data-name="패스 139" d="M-698.774,510.822c2.569-7.56,5.821-17.126,8.83-25.979l4.556-13.4c.557-1.64,1.071-3.129,1.542-4.484l1.707-4.885.025-.072.669-1.928h-15.694l-4.828,13.923-9.685,27.931-1.99,5.739.093-.269-.093.269-3.136,9.043a16.837,16.837,0,0,0,13.44,7.519c.588-1.717,1.359-3.969,1.92-5.621Z" fill="#fff"/>
        <path id="패스_140" data-name="패스 140" d="M-689.944,484.843H-675.9a6.7,6.7,0,0,0,6.334-4.514l3.069-8.887h-18.888C-686.735,475.4-688.3,480.007-689.944,484.843Z" fill="url(#linear-gradient-2)"/>
      </g>
      <path id="패스_141" data-name="패스 141" d="M-687.134,479.859a12.079,12.079,0,0,1,.646-5.182l1.1-3.236c.557-1.64,3.943-11.369,3.943-11.369h-15.694l-19.639,56.636a16.837,16.837,0,0,0,13.44,7.519c.588-1.717,10.385-30.531,13.394-39.384h7.754C-685.781,484.843-686.875,482.22-687.134,479.859Z" fill="url(#linear-gradient-3)"/>
    </g>
  </g>
</svg>
