<svg xmlns="http://www.w3.org/2000/svg" width="237.842" height="38.626" viewBox="0 0 237.842 38.626">
  <g id="logo-word-wh" transform="translate(634.211 -1122.335)">
    <g id="그룹_4740" data-name="그룹 4740" transform="translate(-634.211 1124.501)">
      <path id="패스_142" data-name="패스 142" d="M-627.746,1131.359v10.984h16.807v5.673h-16.807v13.82h-6.465v-36.1H-608.8v5.621Z" transform="translate(634.211 -1125.738)" fill="#fff"/>
      <path id="패스_143" data-name="패스 143" d="M-567.9,1150.408v16.142h-5.868V1163.2c-1.492,2.372-4.376,3.712-8.355,3.712-6.067,0-9.9-3.455-9.9-8.251,0-4.589,2.984-8.2,11.04-8.2h6.862v-.412c0-3.765-2.188-5.982-6.614-5.982a12.838,12.838,0,0,0-8.056,2.733l-2.437-4.693c2.835-2.269,6.962-3.4,11.24-3.4C-572.331,1138.7-567.9,1142.467-567.9,1150.408Zm-6.216,7.53v-3.2h-6.415c-4.227,0-5.371,1.65-5.371,3.662,0,2.32,1.89,3.816,5.072,3.816C-577.8,1162.218-575.165,1160.774-574.12,1157.938Z" transform="translate(618.875 -1130.451)" fill="#fff"/>
      <path id="패스_144" data-name="패스 144" d="M-547.02,1152.781c0-8.251,5.968-14.079,14.372-14.079,5.171,0,9.3,2.217,11.338,6.395l-4.774,2.888a7.457,7.457,0,0,0-6.614-3.816c-4.575,0-8.056,3.3-8.056,8.612,0,5.364,3.481,8.612,8.056,8.612a7.456,7.456,0,0,0,6.614-3.816l4.774,2.888c-2.039,4.125-6.167,6.446-11.338,6.446C-541.052,1166.91-547.02,1161.032-547.02,1152.781Z" transform="translate(602.515 -1130.451)" fill="#fff"/>
      <path id="패스_145" data-name="패스 145" d="M-482.915,1161.755a9.523,9.523,0,0,1-5.967,1.857c-5.819,0-9.15-3.2-9.15-9.282v-13.253h-4.376v-5.157h4.376v-6.292h6.216v6.292h7.111v5.157h-7.111v13.1c0,2.682,1.293,4.126,3.68,4.126a5.452,5.452,0,0,0,3.481-1.135Z" transform="translate(586.297 -1127.152)" fill="#fff"/>
    </g>
    <g id="그룹_4741" data-name="그룹 4741" transform="translate(-523.967 1122.335)">
      <path id="패스_146" data-name="패스 146" d="M-461,1163.714l1.144-2.063a14.767,14.767,0,0,0,9.349,3.249c5.47,0,7.658-2.01,7.658-5.054,0-7.839-17.206-2.063-17.206-12.635,0-4.074,3.282-7.374,9.846-7.374a15.532,15.532,0,0,1,8.9,2.63l-1.144,2.063a13.035,13.035,0,0,0-7.808-2.424c-5.072,0-7.31,2.166-7.31,5.054,0,8.1,17.206,2.372,17.206,12.635,0,4.383-3.63,7.374-10.244,7.374C-454.884,1167.168-458.961,1165.673-461,1163.714Z" transform="translate(461 -1128.697)" fill="#fff"/>
      <path id="패스_147" data-name="패스 147" d="M-398.322,1144.871V1160.6h-2.487v-15.522c0-6.085-3.133-9.283-8.4-9.283-6.116,0-9.846,4.075-9.846,10.469V1160.6h-2.486v-38.265h2.486V1139.3c1.79-3.661,5.371-5.827,10.194-5.827C-402.549,1133.475-398.322,1137.342-398.322,1144.871Z" transform="translate(446.657 -1122.335)" fill="#fff"/>
      <path id="패스_148" data-name="패스 148" d="M-352.17,1154.121H-374.5c.249,6.395,4.774,10.727,10.99,10.727a10.3,10.3,0,0,0,8.3-3.764l1.442,1.7a12.226,12.226,0,0,1-9.8,4.383c-7.857,0-13.377-5.672-13.377-13.666s5.32-13.666,12.432-13.666,12.383,5.569,12.383,13.563C-352.12,1153.606-352.17,1153.864-352.17,1154.121Zm-22.278-2.011h19.891c-.348-5.828-4.425-10-9.946-10S-374.05,1146.232-374.448,1152.11Z" transform="translate(430.44 -1128.697)" fill="#fff"/>
      <path id="패스_149" data-name="패스 149" d="M-306.308,1154.121h-22.328c.249,6.395,4.774,10.727,10.99,10.727a10.3,10.3,0,0,0,8.3-3.764l1.442,1.7a12.226,12.226,0,0,1-9.8,4.383c-7.857,0-13.377-5.672-13.377-13.666s5.32-13.666,12.432-13.666,12.382,5.569,12.382,13.563C-306.259,1153.606-306.308,1153.864-306.308,1154.121Zm-22.278-2.011H-308.7c-.348-5.828-4.425-10-9.945-10S-328.188,1146.232-328.587,1152.11Z" transform="translate(413.768 -1128.697)" fill="#fff"/>
      <path id="패스_150" data-name="패스 150" d="M-270.323,1162.02a7.7,7.7,0,0,1-5.321,1.908c-4.575,0-7.061-2.785-7.061-7.323v-17.585h-4.774V1136.8h4.774v-5.879h2.486v5.879h8.255v2.217h-8.255v17.327c0,3.455,1.641,5.364,4.824,5.364a5.839,5.839,0,0,0,4.028-1.5Z" transform="translate(397.921 -1125.457)" fill="#fff"/>
    </g>
  </g>
</svg>
