<svg xmlns="http://www.w3.org/2000/svg" width="459.064" height="85" viewBox="0 0 459.064 85">
  <g id="logo-wh" transform="translate(719.588 -1098.022)">
    <g id="그룹_4742" data-name="그룹 4742">
      <g id="그룹_4740" data-name="그룹 4740">
        <path id="패스_142" data-name="패스 142" d="M-624.054,1134.57v17.258h26.407v8.913h-26.407v21.714h-10.157v-56.717h39.924v8.832Z" fill="#fff"/>
        <path id="패스_143" data-name="패스 143" d="M-554.129,1157.094v25.361h-9.219v-5.266c-2.344,3.727-6.876,5.833-13.127,5.833-9.532,0-15.548-5.428-15.548-12.964,0-7.211,4.689-12.882,17.346-12.882H-563.9v-.648c0-5.915-3.438-9.4-10.392-9.4a20.17,20.17,0,0,0-12.657,4.294l-3.829-7.373c4.454-3.565,10.939-5.348,17.659-5.348C-561.083,1138.7-554.129,1144.617-554.129,1157.094Zm-9.766,11.831V1163.9h-10.079c-6.641,0-8.438,2.592-8.438,5.753,0,3.645,2.969,5.995,7.969,5.995C-569.677,1175.649-565.536,1173.381-563.9,1168.925Z" fill="#fff"/>
        <path id="패스_144" data-name="패스 144" d="M-547.02,1160.822c0-12.964,9.376-22.12,22.58-22.12,8.125,0,14.61,3.484,17.814,10.047l-7.5,4.538a11.716,11.716,0,0,0-10.392-6c-7.188,0-12.657,5.185-12.657,13.531,0,8.427,5.469,13.531,12.657,13.531a11.714,11.714,0,0,0,10.392-6l7.5,4.537c-3.2,6.482-9.689,10.128-17.814,10.128C-537.644,1183.022-547.02,1173.786-547.02,1160.822Z" fill="#fff"/>
        <path id="패스_145" data-name="패스 145" d="M-471.782,1180.1a14.962,14.962,0,0,1-9.375,2.917c-9.142,0-14.376-5.023-14.376-14.584v-20.823h-6.875v-8.1h6.875v-9.885h9.766v9.885h11.173v8.1h-11.173v20.58c0,4.213,2.032,6.482,5.782,6.482a8.566,8.566,0,0,0,5.469-1.783Z" fill="#fff"/>
      </g>
      <g id="그룹_4741" data-name="그룹 4741">
        <path id="패스_146" data-name="패스 146" d="M-461,1177.351l1.8-3.241a23.2,23.2,0,0,0,14.688,5.1c8.6,0,12.032-3.159,12.032-7.94,0-12.316-27.033-3.241-27.033-19.851,0-6.4,5.156-11.586,15.47-11.586,5.156,0,10.782,1.62,13.985,4.132l-1.8,3.241a20.48,20.48,0,0,0-12.267-3.808c-7.969,0-11.485,3.4-11.485,7.94,0,12.721,27.034,3.727,27.034,19.851,0,6.887-5.7,11.586-16.1,11.586C-451.391,1182.779-457.8,1180.43-461,1177.351Z" fill="#fff"/>
        <path id="패스_147" data-name="패스 147" d="M-385.058,1157.743v24.712h-3.907v-24.388c0-9.561-4.923-14.585-13.205-14.585-9.609,0-15.469,6.4-15.469,16.449v22.524h-3.906v-60.12h3.906v26.657c2.813-5.752,8.438-9.155,16.017-9.155C-391.7,1139.837-385.058,1145.914-385.058,1157.743Z" fill="#fff"/>
        <path id="패스_148" data-name="패스 148" d="M-338.026,1162.28h-35.081c.392,10.047,7.5,16.853,17.267,16.853a16.187,16.187,0,0,0,13.048-5.914l2.266,2.673c-3.594,4.538-9.219,6.887-15.391,6.887-12.345,0-21.017-8.912-21.017-21.471s8.359-21.471,19.532-21.471,19.455,8.75,19.455,21.309C-337.947,1161.47-338.026,1161.875-338.026,1162.28Zm-35-3.16h31.252c-.547-9.156-6.953-15.718-15.626-15.718S-372.4,1149.884-373.028,1159.12Z" fill="#fff"/>
        <path id="패스_149" data-name="패스 149" d="M-292.164,1162.28h-35.081c.391,10.047,7.5,16.853,17.267,16.853a16.19,16.19,0,0,0,13.048-5.914l2.265,2.673c-3.594,4.538-9.219,6.887-15.391,6.887-12.345,0-21.017-8.912-21.017-21.471s8.359-21.471,19.533-21.471,19.454,8.75,19.454,21.309C-292.086,1161.47-292.164,1161.875-292.164,1162.28Zm-35-3.16h31.252c-.547-9.156-6.953-15.718-15.625-15.718S-326.541,1149.884-327.167,1159.12Z" fill="#fff"/>
        <path id="패스_150" data-name="패스 150" d="M-260.524,1179.781a12.1,12.1,0,0,1-8.36,3c-7.188,0-11.094-4.375-11.094-11.505v-27.629h-7.5v-3.484h7.5v-9.237h3.906v9.237h12.97v3.484h-12.97v27.224c0,5.429,2.579,8.427,7.579,8.427a9.174,9.174,0,0,0,6.328-2.35Z" fill="#fff"/>
      </g>
    </g>
    <g id="그룹_4744" data-name="그룹 4744">
      <g id="그룹_4743" data-name="그룹 4743">
        <path id="패스_151" data-name="패스 151" d="M-659.937,1106.91l3.069-8.888h-18.888c-1.346,3.961-2.911,8.565-4.555,13.4h14.041A6.7,6.7,0,0,0-659.937,1106.91Z" fill="#fff"/>
      </g>
      <path id="패스_152" data-name="패스 152" d="M-711.652,1160.122l8.936-25.771,5.577-16.082h-22.449v47.32a16.781,16.781,0,0,0,2.81,9.314l3.136-9.042Z" fill="#fff"/>
      <path id="패스_153" data-name="패스 153" d="M-685.389,1129.638H-666.5l-3.069,8.888a6.7,6.7,0,0,1-6.333,4.513h-14.041c-3.01,8.853-6.261,18.419-8.83,25.979l-2.644,7.784c-.561,1.652-1.332,3.9-1.92,5.621h.012c.2.007.4.031.6.031H-655.4v-47.321a16.865,16.865,0,0,0-16.865-16.865h-9.178l-.669,1.927-.025.072-.264.754c-1.045,3.008-2.62,7.541-2.986,8.616" fill="#fff"/>
    </g>
  </g>
</svg>
