<svg id="mark-factsheet" xmlns="http://www.w3.org/2000/svg" xmlns:xlink="http://www.w3.org/1999/xlink" width="30.004" height="39.469" viewBox="0 0 30.004 39.469">
  <defs>
    <linearGradient id="linear-gradient" x1="1.016" y1="-0.066" x2="-0.241" y2="1.156" gradientUnits="objectBoundingBox">
      <stop offset="0" stop-color="#01ff84"/>
      <stop offset="1" stop-color="#178116"/>
    </linearGradient>
    <linearGradient id="linear-gradient-2" x1="1.016" y1="-0.066" x2="-0.241" y2="1.156" xlink:href="#linear-gradient"/>
    <linearGradient id="linear-gradient-3" x1="0.725" y1="0.259" x2="0.215" y2="1.056" xlink:href="#linear-gradient"/>
  </defs>
  <path id="패스_137" data-name="패스 137" d="M-697.468,460.072h-22.12v22.12a7.845,7.845,0,0,0,1.314,4.354,7.87,7.87,0,0,0,6.282,3.515h.006c.094,0,.187.015.282.015h22.121V467.956A7.884,7.884,0,0,0-697.468,460.072Z" transform="translate(719.588 -450.608)" fill="#212121"/>
  <path id="패스_138" data-name="패스 138" d="M-680.311,446.09h6.564a3.132,3.132,0,0,0,2.961-2.11l1.434-4.154h-8.829C-678.811,441.677-679.542,443.83-680.311,446.09Z" transform="translate(698.671 -439.826)" fill="url(#linear-gradient)"/>
  <g id="그룹_4737" data-name="그룹 4737" transform="translate(1.314 9.464)">
    <path id="패스_139" data-name="패스 139" d="M-708.362,483.8l4.128-12.144,2.13-6.265c.26-.767.5-1.463.721-2.1l.8-2.284.012-.034.313-.9H-707.6l-2.257,6.508-4.527,13.057-.93,2.683.043-.126-.043.126-1.466,4.227a7.87,7.87,0,0,0,6.283,3.515c.275-.8.635-1.855.9-2.628Z" transform="translate(716.778 -460.072)" fill="#fff"/>
    <path id="패스_140" data-name="패스 140" d="M-689.944,477.706h6.564a3.132,3.132,0,0,0,2.961-2.11l1.435-4.154h-8.829Z" transform="translate(702.488 -466.127)" fill="url(#linear-gradient-2)"/>
  </g>
  <path id="패스_141" data-name="패스 141" d="M-702.921,469.321a5.652,5.652,0,0,1,.3-2.422l.514-1.513c.26-.767,1.843-5.314,1.843-5.314H-707.6l-9.18,26.475a7.87,7.87,0,0,0,6.283,3.515c.275-.8,4.854-14.272,6.261-18.41h3.625C-702.288,471.651-702.8,470.425-702.921,469.321Z" transform="translate(718.091 -450.608)" fill="url(#linear-gradient-3)"/>
</svg>
