<svg xmlns="http://www.w3.org/2000/svg" width="188" height="120.001" viewBox="0 0 188 120.001">
  <g id="icon-empty-data" transform="translate(22501 24426.001)">
    <rect id="사각형_2202" data-name="사각형 2202" width="188" height="120" transform="translate(-22501 -24426)" fill="#fff" opacity="0"/>
    <g id="그룹_6158" data-name="그룹 6158" transform="translate(-22613.504 -24493.033)">
      <path id="사각형_2224" data-name="사각형 2224" d="M30,0H99.139A17.156,17.156,0,0,1,116.3,17.156V62.869A17.156,17.156,0,0,1,99.139,80.025H17.156A17.156,17.156,0,0,1,0,62.868V30A30,30,0,0,1,30,0Z" transform="translate(166.016 95.282)" fill="#dddee6"/>
      <g id="그룹_6159" data-name="그룹 6159" transform="translate(189.917 75.56)">
        <rect id="사각형_2225" data-name="사각형 2225" width="57" height="91.027" fill="#fff" stroke="#171820" stroke-linecap="round" stroke-linejoin="round" stroke-width="1"/>
        <line id="선_960" data-name="선 960" x2="44.5" transform="translate(6.25 8.484)" fill="none" stroke="#171820" stroke-linecap="round" stroke-linejoin="round" stroke-width="1"/>
        <rect id="사각형_2226" data-name="사각형 2226" width="1.375" height="2" transform="translate(7.661 4.735)" fill="#171820"/>
        <rect id="사각형_2227" data-name="사각형 2227" width="1.375" height="2" transform="translate(10.411 4.735)" fill="#171820"/>
        <rect id="사각형_2228" data-name="사각형 2228" width="1.375" height="2" transform="translate(13.161 4.735)" fill="#171820"/>
        <rect id="사각형_2229" data-name="사각형 2229" width="1.375" height="2" transform="translate(44.849 4.735)" fill="#171820"/>
        <rect id="사각형_2230" data-name="사각형 2230" width="1.375" height="2" transform="translate(48.15 4.735)" fill="#171820"/>
        <rect id="사각형_2231" data-name="사각형 2231" width="15.125" height="22.5" transform="translate(7.661 12.235)" fill="#fff" stroke="#171820" stroke-linecap="round" stroke-linejoin="round" stroke-width="1"/>
        <rect id="사각형_2232" data-name="사각형 2232" width="21.687" height="22.5" transform="translate(27.349 36.985)" fill="#00eb79" stroke="#171820" stroke-linecap="round" stroke-linejoin="round" stroke-width="1"/>
        <rect id="사각형_2233" data-name="사각형 2233" width="41.374" height="18.577" transform="translate(7.661 63.609)" fill="#fff" stroke="#171820" stroke-linecap="round" stroke-linejoin="round" stroke-width="1"/>
        <line id="선_961" data-name="선 961" x2="23.005" transform="translate(25.833 12.235)" fill="none" stroke="#171820" stroke-linecap="round" stroke-linejoin="round" stroke-width="1"/>
        <line id="선_962" data-name="선 962" x2="23.005" transform="translate(25.833 16.36)" fill="none" stroke="#171820" stroke-linecap="round" stroke-linejoin="round" stroke-width="1"/>
        <line id="선_963" data-name="선 963" x2="23.005" transform="translate(25.833 20.485)" fill="none" stroke="#171820" stroke-linecap="round" stroke-linejoin="round" stroke-width="1"/>
        <line id="선_964" data-name="선 964" x2="23.005" transform="translate(25.833 24.61)" fill="none" stroke="#171820" stroke-linecap="round" stroke-linejoin="round" stroke-width="1"/>
        <line id="선_965" data-name="선 965" x2="23.005" transform="translate(25.833 28.735)" fill="none" stroke="#171820" stroke-linecap="round" stroke-linejoin="round" stroke-width="1"/>
        <line id="선_966" data-name="선 966" x2="23.005" transform="translate(25.833 32.86)" fill="none" stroke="#171820" stroke-linecap="round" stroke-linejoin="round" stroke-width="1"/>
        <line id="선_967" data-name="선 967" x2="16.625" transform="translate(7.661 37.86)" fill="none" stroke="#171820" stroke-linecap="round" stroke-linejoin="round" stroke-width="1"/>
        <line id="선_968" data-name="선 968" x2="16.625" transform="translate(7.661 41.235)" fill="none" stroke="#171820" stroke-linecap="round" stroke-linejoin="round" stroke-width="1"/>
        <line id="선_969" data-name="선 969" x2="16.625" transform="translate(7.661 44.61)" fill="none" stroke="#171820" stroke-linecap="round" stroke-linejoin="round" stroke-width="1"/>
        <line id="선_970" data-name="선 970" x2="16.625" transform="translate(7.661 47.985)" fill="none" stroke="#171820" stroke-linecap="round" stroke-linejoin="round" stroke-width="1"/>
        <line id="선_971" data-name="선 971" x2="16.625" transform="translate(7.661 51.359)" fill="none" stroke="#171820" stroke-linecap="round" stroke-linejoin="round" stroke-width="1"/>
        <line id="선_972" data-name="선 972" x2="16.625" transform="translate(7.661 54.735)" fill="none" stroke="#171820" stroke-linecap="round" stroke-linejoin="round" stroke-width="1"/>
        <line id="선_973" data-name="선 973" x2="16.625" transform="translate(7.661 58.109)" fill="none" stroke="#171820" stroke-linecap="round" stroke-linejoin="round" stroke-width="1"/>
        <rect id="사각형_2234" data-name="사각형 2234" width="14.625" height="15.064" transform="translate(74.223 10.953)" fill="#fff" stroke="#171820" stroke-linecap="round" stroke-linejoin="round" stroke-width="1"/>
        <rect id="사각형_2235" data-name="사각형 2235" width="14.625" height="15.064" transform="translate(66.161 3.421)" fill="#fff" stroke="#171820" stroke-linecap="round" stroke-linejoin="round" stroke-width="1"/>
        <rect id="사각형_2236" data-name="사각형 2236" width="35.533" height="45" transform="translate(65.184 34.735)" fill="#fff" stroke="#171820" stroke-linecap="round" stroke-linejoin="round" stroke-width="1"/>
        <line id="선_974" data-name="선 974" x2="28.549" transform="translate(68.676 43.11)" fill="none" stroke="#171820" stroke-linecap="round" stroke-linejoin="round" stroke-width="1"/>
        <rect id="사각형_2237" data-name="사각형 2237" width="1.375" height="2" transform="translate(69.411 39.609)" fill="#171820"/>
        <rect id="사각형_2238" data-name="사각형 2238" width="1.375" height="2" transform="translate(72.224 39.609)" fill="#171820"/>
        <rect id="사각형_2239" data-name="사각형 2239" width="1.375" height="2" transform="translate(94.911 39.609)" fill="#171820"/>
        <g id="그룹_6158-2" data-name="그룹 6158" transform="translate(71.512 48.047)">
          <path id="패스_6819" data-name="패스 6819" d="M279.254,130.48a11.438,11.438,0,0,0-3.837,15.618l9.818-5.868Z" transform="translate(-273.797 -128.793)" fill="#fff" stroke="#171820" stroke-linecap="round" stroke-linejoin="round" stroke-width="1"/>
          <path id="패스_6820" data-name="패스 6820" d="M285.721,128.643a11.381,11.381,0,0,0-5.981,1.687l5.981,9.75Z" transform="translate(-274.283 -128.643)" fill="#fff" stroke="#171820" stroke-linecap="round" stroke-linejoin="round" stroke-width="1"/>
          <path id="패스_6821" data-name="패스 6821" d="M297.69,140.08a11.437,11.437,0,0,0-11.437-11.437V140.08L294,148.493A11.4,11.4,0,0,0,297.69,140.08Z" transform="translate(-274.815 -128.643)" fill="#00eb79" stroke="#171820" stroke-linecap="round" stroke-linejoin="round" stroke-width="1"/>
          <path id="패스_6822" data-name="패스 6822" d="M275.561,146.966a11.434,11.434,0,0,0,17.564,2.545l-7.746-8.413Z" transform="translate(-273.941 -129.661)" fill="#fff" stroke="#171820" stroke-linecap="round" stroke-linejoin="round" stroke-width="1"/>
        </g>
      </g>
      <g id="그룹_6160" data-name="그룹 6160" transform="translate(139.332 151.373)">
        <path id="패스_6823" data-name="패스 6823" d="M180.379,158.881l-31.869.136s-13.846,12.66-4.355,35.523c0,.006,11.777-.023,11.78-.017l27.291.017Z" transform="translate(-140.831 -158.881)" fill="#171820"/>
      </g>
      <g id="그룹_6172" data-name="그룹 6172" transform="translate(122.504 67.033)">
        <path id="패스_6824" data-name="패스 6824" d="M151.093,92.632c-2.41,4.454-3.882,19.6,1.623,22.088,9.218,4.162,17.123-16.979,8.983-19.641" transform="translate(-124.665 -69.125)" fill="#171820"/>
        <path id="패스_6825" data-name="패스 6825" d="M169.073,73.083c4.806,1.054,12.528,3.078,12.645,8.967.1,4.934-3.531,8.768-3.219,14.061a21.93,21.93,0,0,0,5.837,13.907c5.054,5.612-1.284,12.711-7.484,12.688-7.175-.027-15.434-5.017-17.572-12.091" transform="translate(-125.511 -67.527)" fill="#171820"/>
        <path id="패스_6826" data-name="패스 6826" d="M169.347,110.291c6.761,0,14.869,4.762,20.391,8.2,5.662,3.524,12.879,12.759,11.212,19.979-2.7,11.711-15.115-1.445-18.522-5.8-3.663-4.677-8.3-7.709-13.556-10.549" transform="translate(-126.294 -70.569)" fill="#00eb79" stroke="#171820" stroke-linecap="round" stroke-linejoin="round" stroke-width="1"/>
        <path id="패스_6827" data-name="패스 6827" d="M150.954,116.288c-3.763,2.164-7.454,5.1-8.5,9.532-.927,3.906,1.5,6.686,3.187,10.038,2.913,5.787,4.141,13.223,4.244,19.9h30.34c-1.118-5.125.441-12.881,1.888-17.518,2.179-6.981,2.266-15.275-4.3-19.914" transform="translate(-124.118 -71.059)" fill="#00eb79" stroke="#171820" stroke-linecap="round" stroke-linejoin="round" stroke-width="1"/>
        <path id="패스_6828" data-name="패스 6828" d="M169.472,108.5a14.793,14.793,0,0,1,1.466-5.959c.6-1.438,1.533-3.133,1.38-4.728a6.97,6.97,0,0,0-13.879.922v10.475a43.492,43.492,0,0,0-4.74,1c-.886.285,10,4.144,10.426,4.072,8.142-1.369,1.885-2.44,6.946-4.6Z" transform="translate(-125.05 -69.054)" fill="#fff" stroke="#000" stroke-linecap="round" stroke-linejoin="round" stroke-width="1"/>
        <g id="그룹_6161" data-name="그룹 6161" transform="translate(29.822 5.251)">
          <path id="패스_6829" data-name="패스 6829" d="M167.445,102.844A11.712,11.712,0,0,0,178.687,90.66L178.419,84a11.724,11.724,0,0,0-12.185-11.242h0A11.724,11.724,0,0,0,154.99,84.947l.268,6.656a11.725,11.725,0,0,0,6.561,10.061" transform="translate(-154.98 -72.751)" fill="#fff" stroke="#000" stroke-linecap="round" stroke-linejoin="round" stroke-width="1"/>
          <path id="패스_6830" data-name="패스 6830" d="M177.19,87.281c.026.661.271,1.189.547,1.178s.478-.557.45-1.219-.271-1.189-.546-1.178S177.162,86.618,177.19,87.281Z" transform="translate(-156.796 -73.839)" stroke="#000" stroke-linecap="round" stroke-linejoin="round" stroke-width="1"/>
          <path id="패스_6831" data-name="패스 6831" d="M166.494,87.928c.028.662.308,1.187.624,1.175s.556-.56.53-1.221-.306-1.187-.626-1.175S166.467,87.267,166.494,87.928Z" transform="translate(-155.921 -73.892)" stroke="#000" stroke-linecap="round" stroke-linejoin="round" stroke-width="1"/>
          <path id="패스_6832" data-name="패스 6832" d="M178.562,83.54a2.728,2.728,0,0,0-2.435-.9" transform="translate(-156.709 -73.558)" fill="none" stroke="#000" stroke-linecap="round" stroke-linejoin="round" stroke-width="1"/>
          <path id="패스_6833" data-name="패스 6833" d="M172.868,89.372c2.993-.668,3.231,3.387-.247,3.2" transform="translate(-156.422 -74.104)" fill="none" stroke="#000" stroke-linecap="round" stroke-linejoin="round" stroke-width="1"/>
        </g>
        <path id="패스_6834" data-name="패스 6834" d="M145.111,75.889c-3.038,5.7-1,9.123-.34,15.47.685,6.579-6.109,9.28-10.865,12.235-4.777,2.969-9.762,6.334-11.094,12.138-3.491,15.2,23.75,12.661,26.83.347,1.271-5.078.087-10.307.788-15.437.543-3.963,2.141-11.149,5.86-13.329,2.029-1.19,3.67-1.371,5.238-3.4,2.34-3.027,1.786-6.661,5.777-8.24.728-.288,6.326-1.511,6.044.134,1.651-9.632-12.068-9.626-18.057-7.9-4.224,1.219-7.357,3.267-9.624,7C145.465,75.246,145.28,75.571,145.111,75.889Z" transform="translate(-122.504 -67.033)" fill="#171820"/>
        <path id="패스_6835" data-name="패스 6835" d="M145.727,151.322c2.23,2.352,4.574,4.769,6.917,7.062-2.023,1.055-3.867,4.378-4.836,6.332-1.377-.433-1.979-2.19-2.813-3.344-1.382-1.912-4.019-3.709-4.514-6.044" transform="translate(-123.974 -73.923)" fill="#fff" stroke="#000" stroke-linecap="round" stroke-linejoin="round" stroke-width="1"/>
        <path id="패스_6836" data-name="패스 6836" d="M150.472,127.995l-12,12.492c.66.619,8.055,10.374,8.521,10.006a19.91,19.91,0,0,0-5.544,7.443c-4.3-2.721-8.286-6.689-12.222-9.794-3.287-2.6-4.936-5.595-4.117-9.915,1.545-8.151,9.951-13.25,14.234-19.587a11.026,11.026,0,0,1,2.716-2.735,28.114,28.114,0,0,1,4.42-2.721c1.583-.754,3.225-.823,4.871-1.4-.177.062,18.611,5.427,19.188-.765l2.544.64" transform="translate(-122.7 -70.628)" fill="#00eb79" stroke="#171820" stroke-linecap="round" stroke-linejoin="round" stroke-width="1"/>
        <g id="그룹_6164" data-name="그룹 6164" transform="translate(20.896 82.224)">
          <g id="그룹_6163" data-name="그룹 6163">
            <g id="그룹_6162" data-name="그룹 6162">
              <path id="패스_6837" data-name="패스 6837" d="M153.532,159.4a7.831,7.831,0,0,1,1.151,2.251,1.839,1.839,0,0,1-2.21,2.051s1.347,3.052-.431,2.587c0,0,1.195,2.653-1.679,1.83l-2.077-1.129s1.814,2.765-1.235,1c0,0-2.964-2.239-1.262-3.528,0,0-.534-2.951,1.239-2.623,0,0-.958-3.473,1.893-3.189-.14-1.163.288-2.184,1.58-2.061C151.35,156.667,152.612,158.04,153.532,159.4Z" transform="translate(-145.261 -156.576)" fill="#fff" stroke="#000" stroke-linecap="round" stroke-linejoin="round" stroke-width="1"/>
            </g>
          </g>
          <path id="패스_6838" data-name="패스 6838" d="M149.257,159.18a18.988,18.988,0,0,1,2.335,2.6c.654.778.7,1.786,1.657,2.361" transform="translate(-145.587 -156.789)" fill="#fff" stroke="#000" stroke-linecap="round" stroke-linejoin="round" stroke-width="1"/>
          <path id="패스_6839" data-name="패스 6839" d="M147.129,162.605a21.844,21.844,0,0,0,4.8,4.367" transform="translate(-145.413 -157.069)" fill="#fff" stroke="#000" stroke-linecap="round" stroke-linejoin="round" stroke-width="1"/>
          <path id="패스_6840" data-name="패스 6840" d="M145.865,164.932c.757.759,1.864,2.275,2.8,2.728" transform="translate(-145.31 -157.259)" fill="#fff" stroke="#000" stroke-linecap="round" stroke-linejoin="round" stroke-width="1"/>
        </g>
        <g id="그룹_6165" data-name="그룹 6165" transform="translate(27.6 18.115)">
          <path id="패스_6841" data-name="패스 6841" d="M157.964,88.093c-.756-2.069-4.516-1.54-5.232.291-.891,2.275,1.9,5.319,3.954,5.867" transform="translate(-152.561 -86.76)" fill="#fff" stroke="#000" stroke-linecap="round" stroke-linejoin="round" stroke-width="1"/>
          <path id="패스_6842" data-name="패스 6842" d="M155.524,89.992a2.545,2.545,0,0,1,1.445,1.775" transform="translate(-152.803 -87.025)" fill="none" stroke="#000" stroke-linecap="round" stroke-linejoin="round" stroke-width="1"/>
        </g>
        <path id="패스_6843" data-name="패스 6843" d="M197.247,142.419c7.724,3.095,10.131-5.137,9.469-10.726-.659-5.562-2.636-11.011-4.6-16.227-.333-.885-4.271-10.071-4.087-10.156-1.121.512-8.024,3.417-8.5,1.438.808,3.342.438,6.914.885,10.3.6,4.5,1.959,8.982,1.942,13.542" transform="translate(-127.983 -70.162)" fill="#00eb79" stroke="#171820" stroke-linecap="round" stroke-linejoin="round" stroke-width="1"/>
        <g id="그룹_6170" data-name="그룹 6170" transform="translate(45.123 8.561)">
          <g id="그룹_6166" data-name="그룹 6166">
            <path id="패스_6844" data-name="패스 6844" d="M189.892,81.21A9.791,9.791,0,1,1,176.5,77.694,9.791,9.791,0,0,1,189.892,81.21Z" transform="translate(-171.644 -76.356)" fill="none" stroke="#000" stroke-linecap="round" stroke-linejoin="round" stroke-width="1"/>
            <path id="패스_6845" data-name="패스 6845" d="M195.623,108.249a.816.816,0,0,1-.292,1.117h0a.817.817,0,0,1-1.117-.293l-7.3-12.506a.816.816,0,0,1,.293-1.117h0a.816.816,0,0,1,1.116.294Z" transform="translate(-172.883 -77.907)" fill="#171820"/>
          </g>
          <g id="그룹_6169" data-name="그룹 6169" transform="translate(13.716 18.97)">
            <g id="그룹_6168" data-name="그룹 6168">
              <g id="그룹_6167" data-name="그룹 6167">
                <path id="패스_6846" data-name="패스 6846" d="M196.01,99.275a6.552,6.552,0,0,0-3.78-2.212,5.746,5.746,0,0,0-5.135,2.183c-1.408,2.046.4,4.35,1.613,2.119-.381.7-1.7,1.788-.971,2.82.76,1.077,2.362-.151,3.342-.986-.711.637-1.606,1.559-1.664,2.282-.129,1.565,1.584.937,2.7.306a1.845,1.845,0,0,0-.45.625c-.643,1.581.382,1.989,1.56,1.378a15.833,15.833,0,0,0,2.744-2.39C198.082,103.61,197.573,101.086,196.01,99.275Z" transform="translate(-186.582 -97.014)" fill="#fff" stroke="#000" stroke-linecap="round" stroke-linejoin="round" stroke-width="1"/>
              </g>
              <path id="패스_6847" data-name="패스 6847" d="M188.6,102.182a8.262,8.262,0,0,1,1.046-1.483" transform="translate(-186.746 -97.316)" fill="#fff" stroke="#000" stroke-linecap="round" stroke-linejoin="round" stroke-width="1"/>
              <path id="패스_6848" data-name="패스 6848" d="M192.178,106.634a8.984,8.984,0,0,0,1.38-.866" transform="translate(-187.039 -97.73)" fill="#fff" stroke="#000" stroke-linecap="round" stroke-linejoin="round" stroke-width="1"/>
            </g>
          </g>
        </g>
        <path id="패스_6849" data-name="패스 6849" d="M174.832,134.837a17.338,17.338,0,0,1,.816,6.119" transform="translate(-126.782 -72.575)" fill="none" stroke="#000" stroke-linecap="round" stroke-linejoin="round" stroke-width="1"/>
        <path id="패스_6850" data-name="패스 6850" d="M131.07,142.278a20.438,20.438,0,0,1,8.566,1.53" transform="translate(-123.204 -73.183)" fill="none" stroke="#000" stroke-linecap="round" stroke-linejoin="round" stroke-width="1"/>
        <path id="패스_6851" data-name="패스 6851" d="M167.723,95.962c.586,1.509,2.337,1.842,3.978,1.837" transform="translate(-126.201 -69.397)" fill="none" stroke="#000" stroke-linecap="round" stroke-linejoin="round" stroke-width="1"/>
        <path id="패스_6852" data-name="패스 6852" d="M165.057,83.578a5.652,5.652,0,0,1,2.754-.612" transform="translate(-125.983 -68.335)" fill="none" stroke="#000" stroke-linecap="round" stroke-linejoin="round" stroke-width="1"/>
        <g id="그룹_6171" data-name="그룹 6171" transform="translate(28.898 37.731)">
          <path id="패스_6853" data-name="패스 6853" d="M170.712,108.122a15.914,15.914,0,0,1,3.5,3.426c.111.181-1.918,7.067-2.27,7.875-1.393-1.57-4.2-3.564-4.644-5.634Z" transform="translate(-155.064 -108.122)" fill="#fff" stroke="#000" stroke-linecap="round" stroke-linejoin="round" stroke-width="1"/>
          <path id="패스_6854" data-name="패스 6854" d="M157.727,108.122a18.314,18.314,0,0,0-3.751,3.7c-.111.182,6.626,6.793,6.978,7.6,1.393-1.57,4.2-3.564,4.644-5.634Z" transform="translate(-153.975 -108.122)" fill="#fff" stroke="#000" stroke-linecap="round" stroke-linejoin="round" stroke-width="1"/>
        </g>
      </g>
    </g>
  </g>
</svg>
