<svg xmlns="http://www.w3.org/2000/svg" width="201.005" height="50" viewBox="0 0 201.005 50">
  <g id="img-join-start" transform="translate(-1641.995 -541)">
    <rect id="사각형_2299" data-name="사각형 2299" width="201" height="50" transform="translate(1642 541)" fill="#fff" opacity="0"/>
    <path id="패스_6859" data-name="패스 6859" d="M-189.36.54a25.6,25.6,0,0,1-7.155-.99,17.326,17.326,0,0,1-5.49-2.52l2.97-5.625a16.778,16.778,0,0,0,4.86,2.43,18.227,18.227,0,0,0,5.535.855,9.732,9.732,0,0,0,4.77-.99A3.008,3.008,0,0,0-182.115-9a2.324,2.324,0,0,0-1.395-2.138,23.909,23.909,0,0,0-4.455-1.6,45.4,45.4,0,0,1-5-1.732,9.067,9.067,0,0,1-3.352-2.5,6.572,6.572,0,0,1-1.418-4.41A9.275,9.275,0,0,1-195.953-27a11.209,11.209,0,0,1,5.04-3.735,20.324,20.324,0,0,1,7.583-1.305,25.171,25.171,0,0,1,6.03.7,15.945,15.945,0,0,1,4.86,2l-2.745,5.58a12.928,12.928,0,0,0-3.96-1.823,17.2,17.2,0,0,0-4.59-.607,9.514,9.514,0,0,0-4.9,1.08,3.193,3.193,0,0,0-1.8,2.79,2.249,2.249,0,0,0,.765,1.733,5.774,5.774,0,0,0,1.935,1.125q1.17.428,3.285,1.013a37.311,37.311,0,0,1,4.95,1.642,8.988,8.988,0,0,1,3.307,2.43,6.231,6.231,0,0,1,1.373,4.208,9.17,9.17,0,0,1-1.8,5.648A11.574,11.574,0,0,1-181.71-.788,20.323,20.323,0,0,1-189.36.54Zm26.82-9.09a4.272,4.272,0,0,0-.09.99q0,2.34,2.565,2.34a5.53,5.53,0,0,0,2.835-.855l1.035,5a11.358,11.358,0,0,1-6.03,1.44,8.07,8.07,0,0,1-5.49-1.8,6.216,6.216,0,0,1-2.07-4.95,11.828,11.828,0,0,1,.225-2.115l1.935-9.765h-3.735l1.08-5.4h3.735l1.17-5.895h7.02l-1.17,5.895h6.03l-1.08,5.4h-6.03Zm38.655-15.66L-128.7,0h-6.66l.45-2.385A10.622,10.622,0,0,1-142.335.36a10.7,10.7,0,0,1-5.22-1.305,9.736,9.736,0,0,1-3.8-3.758,11.355,11.355,0,0,1-1.417-5.783A14.683,14.683,0,0,1-151-17.708a13.138,13.138,0,0,1,4.837-5.04,12.945,12.945,0,0,1,6.75-1.822q5.58,0,7.875,3.645l.63-3.285Zm-16.29,18.765a6.816,6.816,0,0,0,3.69-1.012,6.847,6.847,0,0,0,2.52-2.813,9.138,9.138,0,0,0,.9-4.14,5.244,5.244,0,0,0-1.462-3.915,5.555,5.555,0,0,0-4.072-1.44,6.816,6.816,0,0,0-3.69,1.013,6.847,6.847,0,0,0-2.52,2.813,9.138,9.138,0,0,0-.9,4.14,5.244,5.244,0,0,0,1.463,3.915A5.555,5.555,0,0,0-140.175-5.445ZM-111.33-21.33a9.109,9.109,0,0,1,3.8-2.475,16.164,16.164,0,0,1,5.243-.765l-1.26,6.48q-1.26-.09-1.62-.09a7.785,7.785,0,0,0-5.108,1.575A8.217,8.217,0,0,0-112.86-11.7L-115.2,0h-7.02l4.815-24.21h6.66ZM-92.61-8.55a4.272,4.272,0,0,0-.09.99q0,2.34,2.565,2.34A5.53,5.53,0,0,0-87.3-6.075l1.035,5A11.358,11.358,0,0,1-92.3.36a8.07,8.07,0,0,1-5.49-1.8,6.216,6.216,0,0,1-2.07-4.95,11.828,11.828,0,0,1,.225-2.115L-97.7-18.27h-3.735l1.08-5.4h3.735l1.17-5.895h7.02L-89.6-23.67h6.03l-1.08,5.4h-6.03Zm11.745-6.93H-68.13l-1.125,5.625H-81.99ZM-50.355.54q-5.94,0-9.315-2.948a10.167,10.167,0,0,1-3.375-8.078,18.248,18.248,0,0,1,.36-3.375l3.51-17.64h7.335L-55.35-14a15.01,15.01,0,0,0-.27,2.655,5.475,5.475,0,0,0,1.553,4.252A6.487,6.487,0,0,0-49.545-5.67a7.176,7.176,0,0,0,5.31-1.98q1.98-1.98,2.88-6.345l3.51-17.505h7.155l-3.555,17.955Q-37.125.54-50.355.54ZM-11.79-24.57a10.825,10.825,0,0,1,5.243,1.3,9.693,9.693,0,0,1,3.825,3.757,11.355,11.355,0,0,1,1.417,5.783A14.683,14.683,0,0,1-3.083-6.5,13.138,13.138,0,0,1-7.92-1.463,13.028,13.028,0,0,1-14.715.36q-5.535,0-7.83-3.6L-24.93,8.73h-7.02l6.57-32.94h6.66l-.5,2.385A10.622,10.622,0,0,1-11.79-24.57ZM-15.525-5.445a6.816,6.816,0,0,0,3.69-1.012A6.847,6.847,0,0,0-9.315-9.27a9.138,9.138,0,0,0,.9-4.14,5.244,5.244,0,0,0-1.462-3.915,5.555,5.555,0,0,0-4.073-1.44A6.735,6.735,0,0,0-17.6-17.753a6.847,6.847,0,0,0-2.52,2.813,9.138,9.138,0,0,0-.9,4.14,5.29,5.29,0,0,0,1.44,3.915A5.476,5.476,0,0,0-15.525-5.445Z" transform="translate(1844 580)" fill="#fff" opacity="0.08"/>
  </g>
</svg>
