<svg xmlns="http://www.w3.org/2000/svg" xmlns:xlink="http://www.w3.org/1999/xlink" width="192" height="146.712" viewBox="0 0 192 146.712">
  <defs>
    <linearGradient id="linear-gradient" x1="0.185" y1="0.137" x2="0.842" y2="0.877" gradientUnits="objectBoundingBox">
      <stop offset="0" stop-color="#00eb79"/>
      <stop offset="1" stop-color="#3060ff"/>
    </linearGradient>
  </defs>
  <g id="img-checker-man" transform="translate(-576 -469)">
    <circle id="타원_379" data-name="타원 379" cx="54" cy="54" r="54" transform="translate(576 477)" fill="url(#linear-gradient)"/>
    <circle id="타원_380" data-name="타원 380" cx="22" cy="22" r="22" transform="translate(724 555)" opacity="0.7" fill="url(#linear-gradient)"/>
    <g id="그룹_6441" data-name="그룹 6441" transform="translate(623.207 469)">
      <path id="패스_6820" data-name="패스 6820" d="M1228.906,816.66h68.03c-.006-3.447-.151-6.914-.029-10.349.787-22.109,3.574-44.465-3.267-66.054-1.706-5.387-4.37-13.162-9.066-16.672-3.307-2.472-11.087-5.767-15.041-4.36-7.361,2.619-7.148,8.967-16.091,3.922-6.328-3.57-11.006-5.48-16.334,1.045-10.223,12.519-9.3,36.895-9.312,52.071C1227.783,789.648,1228.252,803.241,1228.906,816.66Z" transform="translate(-1203.99 -669.949)" fill="#171820"/>
      <g id="그룹_6209" data-name="그룹 6209" transform="translate(32.614 0)">
        <g id="그룹_6205" data-name="그룹 6205" transform="translate(0)">
          <path id="패스_6821" data-name="패스 6821" d="M1262.3,684.633c2.677,3.8,6.891,9.294,3.661,13.576a12.39,12.39,0,0,0-3.786-7.6c-1.879-1.737-7.338-1.7-6.615-4.994" transform="translate(-1230.764 -677.168)" fill="#171820" stroke="#131313" stroke-linecap="round" stroke-linejoin="round" stroke-width="1"/>
          <rect id="사각형_2272" data-name="사각형 2272" width="14.604" height="23.094" transform="translate(15.685 35.157)" fill="#fff" stroke="#171820" stroke-linecap="round" stroke-linejoin="round" stroke-width="1"/>
          <path id="패스_6822" data-name="패스 6822" d="M1261.388,722.446a14.93,14.93,0,0,0,9.933-18.65l-2.476-8.122a14.942,14.942,0,0,0-18.651-9.933h0a14.943,14.943,0,0,0-9.935,18.651l2.477,8.122a14.943,14.943,0,0,0,11.336,10.291" transform="translate(-1234.112 -677.072)" fill="#fff" stroke="#171820" stroke-linecap="round" stroke-linejoin="round" stroke-width="1"/>
          <path id="패스_6823" data-name="패스 6823" d="M1261.263,697.162c.247.806.717,1.378,1.055,1.275s.409-.84.163-1.647-.718-1.379-1.054-1.276S1261.016,696.354,1261.263,697.162Z" transform="translate(-1229.579 -674.877)" stroke="#171820" stroke-linecap="round" stroke-linejoin="round" stroke-width="1"/>
          <path id="패스_6824" data-name="패스 6824" d="M1251.416,700.39c.246.808.761,1.366,1.149,1.247s.506-.869.259-1.677-.76-1.366-1.151-1.247S1251.171,699.582,1251.416,700.39Z" transform="translate(-1231.651 -674.204)" stroke="#171820" stroke-linecap="round" stroke-linejoin="round" stroke-width="1"/>
          <path id="패스_6825" data-name="패스 6825" d="M1253.511,707.12c.879,2.769,5.809,3.022,7.883,1.673" transform="translate(-1231.182 -672.429)" fill="none" stroke="#171820" stroke-linecap="round" stroke-linejoin="round" stroke-width="1"/>
          <g id="패스_6826" data-name="패스 6826" transform="translate(-1235.068 -678.467)" fill="#171820" stroke-linecap="round" stroke-linejoin="round">
            <path d="M 1246.699829101562 709.9817504882812 C 1246.4794921875 709.7518920898438 1246.292114257812 709.4515991210938 1246.088012695312 709.12451171875 C 1245.688110351562 708.4838256835938 1245.234985351562 707.757568359375 1244.372314453125 707.43310546875 C 1244.271484375 707.3952026367188 1244.159057617188 707.3768310546875 1244.0283203125 707.3768310546875 C 1243.387817382812 707.3768310546875 1242.31787109375 707.8514404296875 1242.005126953125 707.9969482421875 C 1241.415405273438 708.2713012695312 1241.046752929688 708.4966430664062 1240.81396484375 708.6748046875 C 1239.268310546875 707.1364135742188 1238.092163085938 705.6831665039062 1237.120361328125 703.5540161132812 C 1235.523803710938 700.0444946289062 1235.134643554688 696.0936889648438 1236.079711914062 692.9861450195312 C 1236.182006835938 692.6493530273438 1236.289794921875 692.3239135742188 1236.399780273438 692.018798828125 C 1237.965209960938 687.6600341796875 1242.450561523438 686.042236328125 1246.183471679688 685.1197509765625 C 1247.437133789062 684.8101806640625 1248.870239257812 684.5352172851562 1250.387451171875 684.244140625 C 1255.40625 683.2811889648438 1261.068603515625 682.19482421875 1264.41015625 679.19091796875 C 1265.317626953125 680.2804565429688 1265.951171875 681.3368530273438 1266.29638671875 682.3367919921875 C 1266.642333984375 683.3389282226562 1266.706420898438 684.3139038085938 1266.48681640625 685.2345581054688 C 1266.068481445312 686.9885864257812 1264.655151367188 688.6171264648438 1262.166137695312 690.2132568359375 C 1259.91455078125 691.6570434570312 1257.145263671875 692.8284912109375 1254.733276367188 693.7839965820312 C 1251.39111328125 695.1065063476562 1247.763305664062 696.3798828125 1243.883911132812 696.7389526367188 L 1243.974975585938 697.7348022460938 C 1243.988525390625 697.7335815429688 1244.00146484375 697.7329711914062 1244.014404296875 697.7329711914062 C 1244.372436523438 697.7329711914062 1244.650512695312 698.3153076171875 1244.784423828125 698.6624145507812 C 1245.0322265625 699.3045654296875 1245.1708984375 700.1005859375 1245.253784179688 700.576171875 C 1245.269775390625 700.6678466796875 1245.283935546875 700.7496337890625 1245.296875 700.8189697265625 C 1245.439819335938 701.5867309570312 1245.624267578125 702.3711547851562 1245.802734375 703.1297607421875 C 1246.04248046875 704.1489868164062 1246.290283203125 705.202880859375 1246.433959960938 706.207763671875 C 1246.445190429688 706.2861938476562 1246.457153320312 706.369140625 1246.4697265625 706.4558715820312 C 1246.603149414062 707.3782958984375 1246.830200195312 708.9468383789062 1246.699829101562 709.9817504882812 Z" stroke="none"/>
            <path d="M 1264.34375 679.9058227539062 C 1260.866577148438 682.74267578125 1255.37255859375 683.7967529296875 1250.481689453125 684.7351684570312 C 1248.971069335938 685.0250244140625 1247.544189453125 685.2987670898438 1246.303344726562 685.6051025390625 C 1243.828491210938 686.2167358398438 1241.996337890625 686.9232177734375 1240.537475585938 687.828369140625 C 1238.717895507812 688.9573974609375 1237.518432617188 690.3831787109375 1236.8701171875 692.1884765625 C 1236.763061523438 692.4854125976562 1236.658081054688 692.802734375 1236.55810546875 693.1316528320312 C 1235.6474609375 696.1260375976562 1236.027954101562 699.945068359375 1237.5751953125 703.3463745117188 C 1238.45458984375 705.2730712890625 1239.512084960938 706.6337890625 1240.876342773438 708.0277099609375 C 1241.113525390625 707.8819580078125 1241.413452148438 707.7207641601562 1241.794311523438 707.5435791015625 C 1242.329467773438 707.2946166992188 1243.331420898438 706.8768310546875 1244.0283203125 706.8768310546875 C 1244.220092773438 706.8768310546875 1244.389892578125 706.9056396484375 1244.54833984375 706.965087890625 C 1245.332885742188 707.2601928710938 1245.823120117188 707.8229370117188 1246.19873046875 708.3731079101562 C 1246.142333984375 707.6845703125 1246.041870117188 706.9909057617188 1245.974853515625 706.5275268554688 C 1245.962280273438 706.4403686523438 1245.9501953125 706.3569946289062 1245.93896484375 706.278564453125 C 1245.798461914062 705.295654296875 1245.55322265625 704.2528076171875 1245.316040039062 703.2442626953125 C 1245.13623046875 702.4800415039062 1244.950317382812 701.6897583007812 1244.805297851562 700.9105224609375 C 1244.792114257812 700.8394775390625 1244.777465820312 700.7557983398438 1244.761108398438 700.6619262695312 C 1244.690063476562 700.254150390625 1244.582763671875 699.6378784179688 1244.406005859375 699.0918579101562 C 1244.210693359375 698.4887084960938 1244.03515625 698.2894287109375 1243.975952148438 698.2357788085938 C 1243.960083007812 698.2365112304688 1243.944458007812 698.2368774414062 1243.928833007812 698.2368774414062 C 1243.417602539062 698.2368774414062 1242.981567382812 697.8468627929688 1242.93408203125 697.3279418945312 C 1242.8837890625 696.7783813476562 1243.288208007812 696.2919311523438 1243.837768554688 696.2410888671875 C 1247.654663085938 695.8878173828125 1251.24169921875 694.6278686523438 1254.549194335938 693.3191528320312 C 1256.93896484375 692.3724365234375 1259.680541992188 691.213134765625 1261.896240234375 689.7923583984375 C 1264.238037109375 688.2905883789062 1265.619018554688 686.7180786132812 1266.00048828125 685.1185913085938 C 1266.200439453125 684.2802124023438 1266.142700195312 683.4236450195312 1265.82373046875 682.4999389648438 C 1265.53955078125 681.6767578125 1265.043090820312 680.80712890625 1264.34375 679.9058227539062 M 1264.447021484375 678.4668579101562 C 1271.870239257812 686.8402709960938 1262.209716796875 691.3600463867188 1254.91748046875 694.2488403320312 C 1251.371337890625 695.6520385742188 1247.748779296875 696.8833618164062 1243.929931640625 697.23681640625 C 1243.958618164062 697.2342529296875 1243.986572265625 697.2329711914062 1244.014404296875 697.2329711914062 C 1245.281860351562 697.2329711914062 1245.633422851562 699.8945922851562 1245.788452148438 700.7274780273438 C 1246.121459960938 702.5169067382812 1246.674682617188 704.3584594726562 1246.928955078125 706.1370239257812 C 1247.105834960938 707.3792114257812 1247.484741210938 709.701416015625 1247.00634765625 710.7959594726562 C 1245.725463867188 710.2704467773438 1245.570678710938 708.4180908203125 1244.1962890625 707.9010620117188 C 1243.589599609375 707.673583984375 1240.547119140625 709.1178588867188 1240.880126953125 709.43994140625 C 1239.056762695312 707.6758422851562 1237.729736328125 706.0933837890625 1236.66552734375 703.7615966796875 C 1235.162963867188 700.4586791992188 1234.533569335938 696.3518676757812 1235.601318359375 692.8406982421875 C 1235.701782226562 692.5101318359375 1235.810668945312 692.178466796875 1235.929443359375 691.8491821289062 C 1237.513061523438 687.4396362304688 1241.85009765625 685.6755981445312 1246.0634765625 684.6343383789062 C 1251.545532226562 683.28076171875 1260.326904296875 682.6002807617188 1264.447021484375 678.4668579101562 Z" stroke="none" fill="#131313"/>
          </g>
          <g id="그룹_6204" data-name="그룹 6204" transform="translate(4.067 28.517)">
            <path id="패스_6827" data-name="패스 6827" d="M1245.94,705.686c-.346-1.5-1.818-3.359-3.4-3.627-1.611-.274-3.884.959-4.089,2.684-.32,2.7,3.54,5.194,5.91,5.2" transform="translate(-1238.428 -702.02)" fill="#fff" stroke="#171820" stroke-linecap="round" stroke-linejoin="round" stroke-width="1"/>
            <path id="패스_6828" data-name="패스 6828" d="M1241,705.129a2.551,2.551,0,0,1,1.851,1.352" transform="translate(-1237.885 -701.365)" fill="none" stroke="#171820" stroke-linecap="round" stroke-linejoin="round" stroke-width="1"/>
          </g>
        </g>
        <path id="패스_6829" data-name="패스 6829" d="M1255.28,777.034" transform="translate(-1230.81 -657.696)" fill="none" stroke="#231100" stroke-linecap="round" stroke-miterlimit="10" stroke-width="1"/>
        <path id="패스_6830" data-name="패스 6830" d="M1267.732,721.545s-13.856,78.359-14.96,80.041-8.911-80.752-8.911-80.752,6.193,4.533,7.627,4.056,3.976.676,3.976.676Z" transform="translate(-1233.22 -669.892)" fill="#fff" stroke="#171820" stroke-linecap="round" stroke-linejoin="round" stroke-width="1"/>
        <path id="패스_6831" data-name="패스 6831" d="M1248.972,727.112l5.017,9.675-5.017,41.926,6.809,22.934L1262.948,778l-6.808-41.21,4.3-10.034-4.583-1.594-4.734-.676Z" transform="translate(-1232.139 -668.77)" fill="#53ff81" stroke="#171820" stroke-linecap="round" stroke-linejoin="round" stroke-width="1"/>
        <g id="그룹_6206" data-name="그룹 6206" transform="translate(7.951 48.705)">
          <path id="패스_6832" data-name="패스 6832" d="M1263.745,718.695c1.62,1.417.644,4.2,1.746,5.983.138.223-5.281,6.919-5.713,7.913-1.713-1.931-5.162-4.383-5.711-6.929Z" transform="translate(-1239.016 -718.695)" fill="#fff" stroke="#171820" stroke-linecap="round" stroke-linejoin="round" stroke-width="1"/>
          <path id="패스_6833" data-name="패스 6833" d="M1246.25,718.695c-1.62,1.417-3.51,2.768-4.613,4.55-.137.223,8.148,8.353,8.582,9.347,1.713-1.931,5.161-4.383,5.71-6.929Z" transform="translate(-1241.635 -718.695)" fill="#fff" stroke="#171820" stroke-linecap="round" stroke-linejoin="round" stroke-width="1"/>
        </g>
        <path id="패스_6834" data-name="패스 6834" d="M1247.74,718.632l9.555,70.953,11.452-70.1,8.854,21.848-6.689,63.069-27.711,7.166s-7.645-13.379-7.645-14.812l1.194-64.382,2.507-11.467Z" transform="translate(-1234.966 -670.085)" fill="#171820"/>
        <g id="그룹_6208" data-name="그룹 6208" transform="translate(56.545 27.788)">
          <g id="그룹_6207" data-name="그룹 6207" transform="translate(10.866)">
            <path id="패스_6835" data-name="패스 6835" d="M1315.593,705.263c-2.131,2.526-4.535,6.9-7.334,8.606-1.868,1.137-7.414.737-7.779-2.137-.334-2.633,5.143-5.135,7.013-6.351C1309.325,704.186,1315.051,700.759,1315.593,705.263Z" transform="translate(-1288.698 -701.084)" fill="#fff" stroke="#171820" stroke-linecap="round" stroke-linejoin="round" stroke-width="1"/>
            <path id="패스_6836" data-name="패스 6836" d="M1300.48,712.771a124.311,124.311,0,0,1,11.939-8.442c1.882-1.113,7.75-4.292,8.1.23l-7.554,8.212-9.855,4.928" transform="translate(-1288.695 -701.253)" fill="#fff" stroke="#171820" stroke-linecap="round" stroke-linejoin="round" stroke-width="1"/>
            <path id="패스_6837" data-name="패스 6837" d="M1304.955,711.6c4.419-3.149,9.705-7.454,15.048-8.761,3.547-.867,4.107,3.3,2.014,5.5-2.24,2.352-6.728,3.67-9.634,5.164L1305,715.23" transform="translate(-1287.752 -701.143)" fill="#fff" stroke="#171820" stroke-linecap="round" stroke-linejoin="round" stroke-width="1"/>
            <path id="패스_6838" data-name="패스 6838" d="M1298.221,725.761c.007-3.578,1.32-7.293,1.2-10.707-.093-2.661-2.839-5.83-4.912-7.307-1.434-1.022-3.681-1.108-3.759-3.471-.067-1.964,1.589-2.666,3.346-2.834,4.709-.45,9.311,5.566,12.647,8.12,4.067,3.148,8.3.833,12.228-1.226,2.368-1.241,7.005-5.224,9.475-2.576,4.162,4.463-7.555,8.525-10.1,9.576-1.315.541-2.953.768-3.717,2.11l-5.585,9.855" transform="translate(-1290.747 -701.418)" fill="#fff" stroke="#171820" stroke-linecap="round" stroke-linejoin="round" stroke-width="1"/>
            <path id="패스_6839" data-name="패스 6839" d="M1304.764,708.748a27.456,27.456,0,0,0,5.554,2.509" transform="translate(-1287.792 -699.873)" fill="none" stroke="#171820" stroke-linecap="round" stroke-linejoin="round" stroke-width="1"/>
          </g>
          <path id="패스_6840" data-name="패스 6840" d="M1297.931,713.79c6.165,2.822,12.508,4.154,19.111,5.367.116.021-1.527,13.818-1.694,15.026-.609,4.4-1.534,8.754-2.1,13.156a147.232,147.232,0,0,1-2.591,16.437,37.265,37.265,0,0,1-7.722,14.275c-2.4,2.8-7.031,3-10.371,2.366-3.758-.713-8.09-2.935-9.572-6.688-1.424-3.606-1.381-7.714-.955-11.506.9-8.027,3.8-15.688,6.579-23.215C1289.3,737.15,1298.22,713.922,1297.931,713.79Z" transform="translate(-1281.772 -698.811)" fill="#171820"/>
        </g>
        <path id="패스_6841" data-name="패스 6841" d="M1264.363,719.551c21.374,0,32.894,20.975,38.162,40.132,1,3.63,2.6,8.085-.079,10.926-5.023,5.328-19.255,1.545-18.732-6.623" transform="translate(-1228.895 -669.809)" fill="#171820"/>
      </g>
      <g id="그룹_6211" data-name="그룹 6211" transform="translate(0 89.08)">
        <g id="그룹_6210" data-name="그룹 6210" transform="translate(0 0)">
          <rect id="사각형_2273" data-name="사각형 2273" width="45.441" height="34.797" transform="translate(0.322 17.124) rotate(-19.197)" fill="#fff" stroke="#231100" stroke-miterlimit="10" stroke-width="1"/>
          <rect id="사각형_2274" data-name="사각형 2274" width="45.441" height="34.797" transform="translate(0 20.128) rotate(-26.293)" fill="#00eb79" stroke="#171820" stroke-linecap="round" stroke-linejoin="round" stroke-width="1"/>
        </g>
      </g>
      <path id="패스_6842" data-name="패스 6842" d="M1239.368,780.916c1.04,1.615.263,4.294,2.406,5.141,1.444.57,3.669-1.426,4.963-.553,1.251.843-.276,2.85-.779,3.564-1.885,2.683-5.446,5.841-8.863,6.035-2.553.144-5.761-.717-7.486-2.718-1.6-1.851-1.376-4.176-1.947-6.452" transform="translate(-1204.015 -656.877)" fill="#fff" stroke="#171820" stroke-linecap="round" stroke-linejoin="round" stroke-width="1"/>
      <path id="패스_6843" data-name="패스 6843" d="M1226.282,788.8l.845,3.584s11.638-5.256,13.966-8.6l-1.481-2.867" transform="translate(-1204.306 -656.877)" fill="#fff" stroke="#171820" stroke-linecap="round" stroke-linejoin="round" stroke-width="1"/>
      <path id="패스_6844" data-name="패스 6844" d="M1238.217,799.088c-4.422,2.342-9.769,4.528-13.16,5.047-3.593-7.071-7.473-12.978-10.228-20.432-2.866-7.746-5.012-16.023-2.687-24.451,1.441-5.222,4.584-10.1,7.3-14.979,4.853-8.708,10.02-18.064,20.812-22.758,10.487-4.562,9.4,7.017,8.447,12.458-1.045,5.951-3.635,11.647-6.5,17.242-2.665,5.211-7.308,11.421-8.411,16.929-.758,3.782,2.167,8.34,3.356,11.772.343.994,6.677,15.718,7.022,15.438A39.393,39.393,0,0,1,1238.217,799.088Z" transform="translate(-1207.493 -669.614)" fill="#171820"/>
      <path id="패스_6845" data-name="패스 6845" d="M1256.552,699.856c1.2,3.255.411,6.538-1.757,7.336s-4.895-1.195-6.092-4.449-.41-6.539,1.758-7.336S1255.355,696.6,1256.552,699.856Z" transform="translate(-1199.699 -674.934)" fill="none" stroke="#171820" stroke-linecap="round" stroke-linejoin="round" stroke-width="1"/>
      <path id="패스_6846" data-name="패스 6846" d="M1265.571,696.21c1.2,3.254.409,6.539-1.758,7.336s-4.9-1.2-6.091-4.448-.411-6.539,1.757-7.337S1264.374,692.955,1265.571,696.21Z" transform="translate(-1197.798 -675.703)" fill="none" stroke="#171820" stroke-linecap="round" stroke-linejoin="round" stroke-width="1"/>
      <path id="패스_6847" data-name="패스 6847" d="M1255.18,698.666a17.852,17.852,0,0,1,2.788-1.161" transform="translate(-1198.216 -674.455)" fill="none" stroke="#171820" stroke-linecap="round" stroke-linejoin="round" stroke-width="1"/>
      <line id="선_968" data-name="선 968" y1="1.626" x2="7.261" transform="translate(41.743 27.809)" fill="none" stroke="#171820" stroke-linecap="round" stroke-linejoin="round" stroke-width="1"/>
      <path id="패스_6848" data-name="패스 6848" d="M1256.044,695.394l5.227,9.758-3.136.349" transform="translate(-1198.034 -674.9)" fill="none" stroke="#171820" stroke-linecap="round" stroke-linejoin="round" stroke-width="1"/>
    </g>
  </g>
</svg>
