<svg xmlns="http://www.w3.org/2000/svg" width="193.77" height="50" viewBox="0 0 193.77 50">
  <g id="img-join-checker" transform="translate(-2013.625 -539)">
    <rect id="사각형_2301" data-name="사각형 2301" width="193" height="50" transform="translate(2014 539)" fill="none"/>
    <path id="패스_6861" data-name="패스 6861" d="M-176.805.54a18.751,18.751,0,0,1-8.258-1.71,12.585,12.585,0,0,1-5.423-4.815,13.485,13.485,0,0,1-1.89-7.155,19.125,19.125,0,0,1,2.452-9.652,17.645,17.645,0,0,1,6.908-6.773A20.68,20.68,0,0,1-172.8-32.04a18.233,18.233,0,0,1,7.47,1.44,10.648,10.648,0,0,1,4.9,4.14l-5.265,4.32a8.59,8.59,0,0,0-7.605-3.69,11.513,11.513,0,0,0-6.12,1.62,11.107,11.107,0,0,0-4.118,4.41A13.17,13.17,0,0,0-185-13.59a7.482,7.482,0,0,0,2.318,5.783,9.235,9.235,0,0,0,6.5,2.137,10.946,10.946,0,0,0,8.37-3.645l4.32,4.41Q-168.165.54-176.805.54Zm34.875-25.11a9.224,9.224,0,0,1,6.435,2.16,7.834,7.834,0,0,1,2.385,6.12,13.441,13.441,0,0,1-.315,2.88L-136.125,0h-7.02l2.61-12.96a7.264,7.264,0,0,0,.18-1.665,3.8,3.8,0,0,0-1.035-2.88,4.337,4.337,0,0,0-3.1-.99,6.56,6.56,0,0,0-4.478,1.552,8.1,8.1,0,0,0-2.407,4.658L-153.81,0h-7.02l6.66-33.39h7.02l-2.25,11.385A11.35,11.35,0,0,1-141.93-24.57Zm38.745,10.665a18.955,18.955,0,0,1-.4,3.69h-18.54q.36,4.95,6.255,4.95a10.708,10.708,0,0,0,3.533-.585A9.013,9.013,0,0,0-109.4-7.515l2.925,4.635a13.967,13.967,0,0,1-4.635,2.43,18.417,18.417,0,0,1-5.49.81,15.186,15.186,0,0,1-6.548-1.328,9.82,9.82,0,0,1-4.32-3.8,10.766,10.766,0,0,1-1.507-5.715,14.4,14.4,0,0,1,1.822-7.222,13.079,13.079,0,0,1,5.063-5.04,14.791,14.791,0,0,1,7.38-1.822,13.384,13.384,0,0,1,6.1,1.3,9.454,9.454,0,0,1,4,3.735A10.958,10.958,0,0,1-103.185-13.905Zm-11.835-5.4a6.618,6.618,0,0,0-4.185,1.327,7.155,7.155,0,0,0-2.43,3.668h12.015a4.7,4.7,0,0,0-1.462-3.668A5.636,5.636,0,0,0-115.02-19.305ZM-88.425.36A14.823,14.823,0,0,1-94.95-.99a10.032,10.032,0,0,1-4.3-3.8,10.649,10.649,0,0,1-1.507-5.693,13.872,13.872,0,0,1,1.89-7.2,13.516,13.516,0,0,1,5.265-5.04A15.592,15.592,0,0,1-86-24.57a13.312,13.312,0,0,1,6.683,1.6,10.066,10.066,0,0,1,4.207,4.522l-5.94,2.97a5.52,5.52,0,0,0-5.4-3.285,6.931,6.931,0,0,0-3.712,1.013,6.949,6.949,0,0,0-2.565,2.813,8.85,8.85,0,0,0-.923,4.1A5.276,5.276,0,0,0-92.16-6.908a5.646,5.646,0,0,0,4.14,1.463,6.639,6.639,0,0,0,5.94-3.24l5.175,3.24A11.933,11.933,0,0,1-81.7-1.17,14.74,14.74,0,0,1-88.425.36Zm31.68-14.04L-48.42,0h-8.145l-5.76-9.405L-66.6-5.85-67.77,0h-7.02l6.66-33.39h7.02l-3.735,18.675,11.61-9.5H-44.1Zm36.225-.225a18.955,18.955,0,0,1-.405,3.69h-18.54q.36,4.95,6.255,4.95a10.708,10.708,0,0,0,3.533-.585A9.013,9.013,0,0,0-26.73-7.515L-23.8-2.88A13.967,13.967,0,0,1-28.44-.45a18.417,18.417,0,0,1-5.49.81A15.186,15.186,0,0,1-40.477-.968a9.82,9.82,0,0,1-4.32-3.8,10.766,10.766,0,0,1-1.507-5.715,14.4,14.4,0,0,1,1.823-7.222,13.079,13.079,0,0,1,5.063-5.04,14.791,14.791,0,0,1,7.38-1.822,13.384,13.384,0,0,1,6.1,1.3,9.454,9.454,0,0,1,4,3.735A10.958,10.958,0,0,1-20.52-13.905Zm-11.835-5.4a6.618,6.618,0,0,0-4.185,1.327,7.155,7.155,0,0,0-2.43,3.668h12.015a4.7,4.7,0,0,0-1.462-3.668A5.636,5.636,0,0,0-32.355-19.305Zm24.7-2.025a9.109,9.109,0,0,1,3.8-2.475,16.164,16.164,0,0,1,5.243-.765L.135-18.09q-1.26-.09-1.62-.09a7.785,7.785,0,0,0-5.108,1.575A8.217,8.217,0,0,0-9.18-11.7L-11.52,0h-7.02l4.815-24.21h6.66Z" transform="translate(2206 580)" fill="#fff" opacity="0.15"/>
  </g>
</svg>
