<svg xmlns="http://www.w3.org/2000/svg" width="95.985" height="14.49" viewBox="0 0 95.985 14.49">
  <path id="img-txt-member" d="M11.055,0,11.04-6.96,7.59-1.2H6.72L3.27-6.87V0H1.41V-10.5H3.015l4.17,6.96,4.1-6.96h1.6L12.9,0Zm12.03-3.96q0,.2-.03.555H16.77A2.178,2.178,0,0,0,17.632-2a2.827,2.827,0,0,0,1.733.517,2.92,2.92,0,0,0,2.175-.87l1,1.155a3.386,3.386,0,0,1-1.365.975,4.972,4.972,0,0,1-1.86.33A4.95,4.95,0,0,1,16.995-.42a3.781,3.781,0,0,1-1.552-1.463,4.13,4.13,0,0,1-.548-2.122,4.191,4.191,0,0,1,.533-2.108,3.777,3.777,0,0,1,1.478-1.462,4.311,4.311,0,0,1,2.13-.525,4.2,4.2,0,0,1,2.093.517,3.665,3.665,0,0,1,1.44,1.455A4.412,4.412,0,0,1,23.085-3.96ZM19.035-6.6a2.262,2.262,0,0,0-1.522.533,2.24,2.24,0,0,0-.758,1.418H21.3a2.21,2.21,0,0,0-.735-1.41A2.235,2.235,0,0,0,19.035-6.6Zm15.96-1.5a3.259,3.259,0,0,1,2.4.878A3.557,3.557,0,0,1,38.28-4.59V0H36.4V-4.35a2.345,2.345,0,0,0-.465-1.582A1.677,1.677,0,0,0,34.6-6.465a1.955,1.955,0,0,0-1.515.622,2.54,2.54,0,0,0-.57,1.777V0H30.645V-4.35a2.345,2.345,0,0,0-.465-1.582,1.677,1.677,0,0,0-1.335-.533,1.962,1.962,0,0,0-1.523.615,2.557,2.557,0,0,0-.562,1.785V0H24.885V-8.01H26.67v1.02a2.915,2.915,0,0,1,1.125-.825,3.82,3.82,0,0,1,1.5-.285,3.624,3.624,0,0,1,1.6.337,2.593,2.593,0,0,1,1.1,1,3.338,3.338,0,0,1,1.275-.982A4.141,4.141,0,0,1,34.995-8.1Zm10.125,0a4.252,4.252,0,0,1,2.093.51A3.678,3.678,0,0,1,48.66-6.15a4.288,4.288,0,0,1,.525,2.145,4.33,4.33,0,0,1-.525,2.153A3.665,3.665,0,0,1,47.212-.405a4.252,4.252,0,0,1-2.093.51A3.875,3.875,0,0,1,43.612-.18a2.9,2.9,0,0,1-1.147-.855V0H40.68V-11.13h1.875v4.1a3.148,3.148,0,0,1,1.132-.8A3.711,3.711,0,0,1,45.12-8.1Zm-.21,6.6a2.266,2.266,0,0,0,1.7-.69,2.5,2.5,0,0,0,.668-1.815,2.5,2.5,0,0,0-.668-1.815,2.266,2.266,0,0,0-1.7-.69,2.411,2.411,0,0,0-1.215.307,2.222,2.222,0,0,0-.855.878,2.685,2.685,0,0,0-.315,1.32,2.685,2.685,0,0,0,.315,1.32,2.222,2.222,0,0,0,.855.878A2.411,2.411,0,0,0,44.91-1.5ZM58.5-3.96q0,.2-.03.555H52.185A2.178,2.178,0,0,0,53.047-2a2.827,2.827,0,0,0,1.733.517,2.92,2.92,0,0,0,2.175-.87L57.96-1.2a3.386,3.386,0,0,1-1.365.975,4.972,4.972,0,0,1-1.86.33A4.95,4.95,0,0,1,52.41-.42a3.781,3.781,0,0,1-1.552-1.463,4.13,4.13,0,0,1-.548-2.122,4.191,4.191,0,0,1,.533-2.108A3.777,3.777,0,0,1,52.32-7.575,4.311,4.311,0,0,1,54.45-8.1a4.2,4.2,0,0,1,2.093.517,3.665,3.665,0,0,1,1.44,1.455A4.412,4.412,0,0,1,58.5-3.96ZM54.45-6.6a2.262,2.262,0,0,0-1.522.533A2.24,2.24,0,0,0,52.17-4.65h4.545a2.21,2.21,0,0,0-.735-1.41A2.235,2.235,0,0,0,54.45-6.6Zm7.635-.24a3.124,3.124,0,0,1,2.85-1.26v1.785A2.38,2.38,0,0,0,64.5-6.36a2.265,2.265,0,0,0-1.71.638,2.542,2.542,0,0,0-.615,1.837V0H60.3V-8.01h1.785ZM69.03.105a7.171,7.171,0,0,1-1.9-.255A4.793,4.793,0,0,1,65.64-.8l.72-1.425a4.629,4.629,0,0,0,1.3.577,5.391,5.391,0,0,0,1.493.217q1.68,0,1.68-.885a.591.591,0,0,0-.427-.585A7.381,7.381,0,0,0,69.03-3.21a11.135,11.135,0,0,1-1.613-.345,2.475,2.475,0,0,1-1.08-.682A1.906,1.906,0,0,1,65.88-5.6a2.134,2.134,0,0,1,.952-1.822A4.335,4.335,0,0,1,69.4-8.1a7.424,7.424,0,0,1,1.65.188,4.626,4.626,0,0,1,1.35.5l-.72,1.425a4.441,4.441,0,0,0-2.295-.6,2.544,2.544,0,0,0-1.253.247.738.738,0,0,0-.427.653.652.652,0,0,0,.457.637,7.271,7.271,0,0,0,1.418.352,10.937,10.937,0,0,1,1.575.345,2.465,2.465,0,0,1,1.058.66,1.84,1.84,0,0,1,.442,1.32,2.089,2.089,0,0,1-.975,1.8A4.6,4.6,0,0,1,69.03.105ZM78.825-8.1a3.347,3.347,0,0,1,2.43.885A3.491,3.491,0,0,1,82.17-4.59V0H80.295V-4.35a2.249,2.249,0,0,0-.5-1.582,1.83,1.83,0,0,0-1.41-.533,2.165,2.165,0,0,0-1.635.622,2.481,2.481,0,0,0-.6,1.793V0H74.28V-11.13h1.875v4.05A3.05,3.05,0,0,1,77.3-7.838,4.211,4.211,0,0,1,78.825-8.1Zm5.73.09H86.43V0H84.555ZM85.5-9.33a1.2,1.2,0,0,1-.855-.322,1.054,1.054,0,0,1-.345-.8,1.054,1.054,0,0,1,.345-.8,1.2,1.2,0,0,1,.855-.322,1.238,1.238,0,0,1,.855.307.991.991,0,0,1,.345.772,1.131,1.131,0,0,1-.338.833A1.168,1.168,0,0,1,85.5-9.33ZM93.33-8.1a4.252,4.252,0,0,1,2.093.51A3.678,3.678,0,0,1,96.87-6.15a4.288,4.288,0,0,1,.525,2.145,4.33,4.33,0,0,1-.525,2.153A3.665,3.665,0,0,1,95.423-.405a4.252,4.252,0,0,1-2.093.51,3.234,3.234,0,0,1-2.565-1.08V2.91H88.89V-8.01h1.785v1.05a2.9,2.9,0,0,1,1.147-.855A3.875,3.875,0,0,1,93.33-8.1Zm-.21,6.6a2.266,2.266,0,0,0,1.7-.69,2.5,2.5,0,0,0,.668-1.815,2.5,2.5,0,0,0-.668-1.815,2.266,2.266,0,0,0-1.7-.69A2.411,2.411,0,0,0,91.9-6.2a2.222,2.222,0,0,0-.855.878,2.685,2.685,0,0,0-.315,1.32,2.685,2.685,0,0,0,.315,1.32,2.222,2.222,0,0,0,.855.878A2.411,2.411,0,0,0,93.12-1.5Z" transform="translate(-1.41 11.58)" fill="#00eb79"/>
</svg>
