<svg id="btn-ttip" xmlns="http://www.w3.org/2000/svg" width="20" height="20" viewBox="0 0 20 20">
  <g id="타원_364" data-name="타원 364" fill="#fff" stroke="#8e909f" stroke-width="1">
    <circle cx="10" cy="10" r="10" stroke="none"/>
    <circle cx="10" cy="10" r="9.5" fill="none"/>
  </g>
  <path id="About" d="M3.423-7.154c0-1.792-1.05-3.248-3.57-3.248a3.545,3.545,0,0,0-3.5,3.654h1.876c0-1.2.658-2.058,1.624-2.058A1.5,1.5,0,0,1,1.547-7.154c0,.854-.6,1.4-1.344,2a3.328,3.328,0,0,0-1.47,2.59v.728H.581v-.728c0-.742.5-1.19,1.33-1.862A3.506,3.506,0,0,0,3.423-7.154ZM.931.462A1.241,1.241,0,0,0-.343-.8,1.241,1.241,0,0,0-1.617.462,1.241,1.241,0,0,0-.343,1.722,1.241,1.241,0,0,0,.931.462Z" transform="translate(10 14.402)" fill="#b8bac7"/>
</svg>
