<svg xmlns="http://www.w3.org/2000/svg" width="20" height="20" viewBox="0 0 20 20">
  <g id="btn-date" transform="translate(-394 -39)">
    <rect id="사각형_2223" data-name="사각형 2223" width="20" height="20" transform="translate(394 39)" fill="#fff" opacity="0"/>
    <g id="그룹_6151" data-name="그룹 6151" transform="translate(-581 -965.318)">
      <path id="calendar" d="M17.5,2.5h-.833V.833A.834.834,0,0,0,15.833,0H15a.834.834,0,0,0-.833.833V2.5H5.833V.833A.834.834,0,0,0,5,0H4.167a.834.834,0,0,0-.833.833V2.5H2.5A2.5,2.5,0,0,0,0,5V17.5A2.5,2.5,0,0,0,2.5,20h15A2.5,2.5,0,0,0,20,17.5V5a2.5,2.5,0,0,0-2.5-2.5Zm.833,15a.835.835,0,0,1-.833.833H2.5a.835.835,0,0,1-.833-.833V7.367H18.333Zm0,0" transform="translate(975 1004.319)" fill="#5c5e70"/>
      <line id="선_959" data-name="선 959" x2="9" transform="translate(980.5 1017)" fill="none" stroke="#5c5e70" stroke-width="1.5"/>
    </g>
  </g>
</svg>
