<?xml version="1.0" encoding="utf-8"?>
<!-- Generator: Adobe Illustrator 25.4.1, SVG Export Plug-In . SVG Version: 6.00 Build 0)  -->
<svg version="1.1" id="레이어_1" xmlns="http://www.w3.org/2000/svg" xmlns:xlink="http://www.w3.org/1999/xlink" x="0px"
	 y="0px" viewBox="0 0 260 180" style="enable-background:new 0 0 260 180;" xml:space="preserve">
<style type="text/css">
	.st0{fill:#EBECF5;}
	.st1{fill:#B8BAC7;}
</style>
<g id="dft-thumb" transform="translate(-415 -910)">
	<rect id="사각형_11" x="415" y="910" class="st0" width="260" height="180"/>
	<g id="logo-wh" transform="translate(1203.588 -109.022)">
		<g id="그룹_4742" transform="translate(-696.839 1104.5)">
			<g id="그룹_4740" transform="translate(0 0.907)">
				<path id="패스_142" class="st1" d="M2.7-2.6V2h7v2.4h-7v5.8H0V-5h10.6v2.4L2.7-2.6z"/>
				<path id="패스_143" class="st1" d="M21.3,3.4v6.8h-2.5V8.7c-0.8,1.1-2.1,1.7-3.5,1.6c-2.5,0-4.1-1.4-4.1-3.5
					c0-1.9,1.2-3.4,4.6-3.4h2.9V3.2c0-1.6-0.9-2.5-2.8-2.5c-1.2,0-2.4,0.4-3.4,1.1l-1-2c1.4-1,3-1.5,4.7-1.4
					C19.5-1.5,21.3,0,21.3,3.4z M18.7,6.5V5.2h-2.7c-1.8,0-2.2,0.7-2.2,1.5c0,1,0.8,1.6,2.1,1.6C17.2,8.4,18.3,7.7,18.7,6.5
					L18.7,6.5z"/>
				<path id="패스_144" class="st1" d="M23.2,4.4c-0.1-3.2,2.4-5.8,5.5-5.9c0.2,0,0.3,0,0.5,0c2-0.1,3.8,0.9,4.7,2.7l-2,1.2
					c-0.6-1-1.6-1.6-2.8-1.6c-1.8,0-3.4,1.4-3.4,3.3c0,0.1,0,0.2,0,0.3c-0.2,1.8,1.2,3.4,3,3.6c0.1,0,0.2,0,0.4,0
					c1.1,0,2.2-0.6,2.8-1.6l2,1.2c-0.9,1.8-2.8,2.8-4.7,2.7c-3.2,0.2-5.9-2.3-6-5.4C23.2,4.7,23.2,4.5,23.2,4.4z"/>
				<path id="패스_145" class="st1" d="M43.3,9.5c-0.7,0.5-1.6,0.8-2.5,0.8c-2.4,0-3.8-1.3-3.8-3.9V0.8h-1.8v-2.2h1.8V-4h2.6v2.6
					h3v2.2h-3v5.5c0,1.1,0.5,1.7,1.5,1.7c0.5,0,1-0.2,1.5-0.5L43.3,9.5z"/>
			</g>
			<g id="그룹_4741" transform="translate(46.152 0)">
				<path id="패스_146" class="st1" d="M0,9.7l0.5-0.9c1.1,0.9,2.5,1.4,3.9,1.4c2.3,0,3.2-0.8,3.2-2.1c0-3.3-7.2-0.9-7.2-5.3
					c0-1.7,1.4-3.1,4.1-3.1c1.3,0,2.6,0.4,3.7,1.1L7.8,1.6c-1-0.7-2.1-1-3.3-1c-2.1,0-3.1,0.9-3.1,2.1c0,3.4,7.2,1,7.2,5.3
					c0,1.8-1.5,3.1-4.3,3.1C2.8,11.2,1.2,10.6,0,9.7z"/>
				<path id="패스_147" class="st1" d="M20.2,4.4V11h-1V4.5c0-2.5-1.3-3.9-3.5-3.9c-2.6,0-4.1,1.7-4.1,4.4v6h-1V-5h1v7.1
					c0.8-1.6,2.5-2.6,4.3-2.4C18.5-0.3,20.2,1.3,20.2,4.4z"/>
				<path id="패스_148" class="st1" d="M32.8,5.6h-9.3c0,2.5,1.9,4.5,4.4,4.5c0.1,0,0.1,0,0.2,0c1.3,0,2.6-0.5,3.5-1.6l0.6,0.7
					c-1,1.2-2.5,1.9-4.1,1.8c-3,0.1-5.5-2.3-5.6-5.3c0-0.2,0-0.3,0-0.5c0-3.3,2.2-5.7,5.2-5.7s5.2,2.3,5.2,5.7
					C32.8,5.4,32.8,5.5,32.8,5.6z M23.4,4.8h8.3c0-2.3-1.9-4.2-4.2-4.2C25.3,0.6,23.4,2.5,23.4,4.8L23.4,4.8z"/>
				<path id="패스_149" class="st1" d="M45,5.6h-9.3c0,2.5,1.9,4.5,4.4,4.5c0.1,0,0.1,0,0.2,0c1.3,0,2.6-0.5,3.5-1.6l0.6,0.7
					c-1,1.2-2.5,1.9-4.1,1.8c-3,0.1-5.5-2.3-5.6-5.3c0-0.2,0-0.3,0-0.5c0-3.3,2.2-5.7,5.2-5.7S45,2,45,5.3C45,5.4,45,5.5,45,5.6z
					 M35.7,4.8H44c0-2.3-1.9-4.2-4.2-4.2C37.5,0.6,35.7,2.5,35.7,4.8L35.7,4.8z"/>
				<path id="패스_150" class="st1" d="M53.4,10.3c-0.6,0.5-1.4,0.8-2.2,0.8c-1.5,0.1-2.8-1-3-2.5c0-0.2,0-0.4,0-0.6V0.7h-2v-0.9
					h2v-2.5h1v2.5h3.5v0.9h-3.5v7.3c0,1.4,0.7,2.2,2,2.2c0.6,0,1.2-0.2,1.7-0.6L53.4,10.3z"/>
			</g>
		</g>
		<g id="그룹_4744" transform="translate(-719.588 1098.022)">
			<g id="그룹_4743" transform="translate(10.465)">
				<path id="패스_151" class="st1" d="M5.4-2.6L6.2-5h-5L0-1.4h3.7C4.5-1.4,5.2-1.9,5.4-2.6z"/>
			</g>
			<path id="패스_152" class="st1" d="M2.1,11.5l2.4-6.9L6,0.4H0V13c0,0.9,0.3,1.7,0.7,2.5l0.8-2.4L2.1,11.5z"/>
			<path id="패스_153" class="st1" d="M9.1,3.4h5l-0.8,2.4C13.1,6.5,12.4,7,11.6,7H7.9l-2.4,6.9L4.8,16c-0.1,0.4-0.4,1-0.5,1.5
				l0,0c0.1,0,0.1,0,0.2,0h12.6V4.9c0-2.5-2-4.5-4.5-4.5c0,0,0,0,0,0h-2.4L10,0.9l0,0L9.9,1.1C9.6,1.9,9.2,3.1,9.1,3.4"/>
		</g>
	</g>
</g>
</svg>
