<svg xmlns="http://www.w3.org/2000/svg" width="260" height="180" viewBox="0 0 260 180">
  <g id="dft-thumb" transform="translate(-415 -910)">
    <rect id="사각형_11" data-name="사각형 11" width="260" height="180" transform="translate(415 910)" fill="#ebecf5"/>
    <g id="logo-wh" transform="translate(1203.588 -114.022)">
      <g id="그룹_4742" data-name="그룹 4742" transform="translate(-696.839 1104.5)">
        <g id="그룹_4740" data-name="그룹 4740" transform="translate(0 0.907)">
          <path id="패스_142" data-name="패스 142" d="M-631.5,1128.091v4.6h7.036v2.375H-631.5v5.786h-2.706v-15.112h10.638v2.353Z" transform="translate(634.211 -1125.738)" fill="#b8bac7"/>
          <path id="패스_143" data-name="패스 143" d="M-581.926,1143.6v6.757h-2.456v-1.4a3.883,3.883,0,0,1-3.5,1.554c-2.54,0-4.143-1.446-4.143-3.454,0-1.921,1.249-3.432,4.622-3.432h2.873v-.173c0-1.576-.916-2.5-2.769-2.5a5.374,5.374,0,0,0-3.372,1.144l-1.02-1.965a7.619,7.619,0,0,1,4.705-1.425C-583.779,1138.7-581.926,1140.278-581.926,1143.6Zm-2.6,3.152v-1.339h-2.686c-1.769,0-2.248.691-2.248,1.533,0,.971.791,1.6,2.123,1.6A2.827,2.827,0,0,0-584.528,1146.755Z" transform="translate(603.264 -1135.248)" fill="#b8bac7"/>
          <path id="패스_144" data-name="패스 144" d="M-547.02,1144.6A5.721,5.721,0,0,1-541,1138.7a4.968,4.968,0,0,1,4.747,2.677l-2,1.209a3.122,3.122,0,0,0-2.769-1.6,3.327,3.327,0,0,0-3.372,3.605,3.315,3.315,0,0,0,3.372,3.605,3.121,3.121,0,0,0,2.769-1.6l2,1.209a5.02,5.02,0,0,1-4.747,2.7A5.738,5.738,0,0,1-547.02,1144.6Z" transform="translate(570.252 -1135.248)" fill="#b8bac7"/>
          <path id="패스_145" data-name="패스 145" d="M-494.248,1143.077a3.986,3.986,0,0,1-2.5.777c-2.436,0-3.831-1.338-3.831-3.886v-5.548h-1.832v-2.159h1.832v-2.634h2.6v2.634H-495v2.159h-2.977v5.484c0,1.123.541,1.727,1.541,1.727a2.282,2.282,0,0,0,1.457-.475Z" transform="translate(537.527 -1128.591)" fill="#b8bac7"/>
        </g>
        <g id="그룹_4741" data-name="그룹 4741" transform="translate(46.152 0)">
          <path id="패스_146" data-name="패스 146" d="M-461,1149.833l.479-.864a6.181,6.181,0,0,0,3.914,1.36c2.29,0,3.206-.842,3.206-2.116,0-3.281-7.2-.864-7.2-5.289,0-1.706,1.374-3.087,4.122-3.087a6.5,6.5,0,0,1,3.726,1.1l-.479.864a5.457,5.457,0,0,0-3.269-1.015c-2.123,0-3.06.907-3.06,2.116,0,3.39,7.2.993,7.2,5.289,0,1.835-1.52,3.087-4.289,3.087A6.66,6.66,0,0,1-461,1149.833Z" transform="translate(461 -1135.174)" fill="#b8bac7"/>
          <path id="패스_147" data-name="패스 147" d="M-411.823,1131.77v6.584h-1.041v-6.5c0-2.548-1.312-3.886-3.518-3.886-2.56,0-4.122,1.706-4.122,4.383v6h-1.041v-16.019h1.041v7.1a4.466,4.466,0,0,1,4.268-2.439C-413.593,1127-411.823,1128.618-411.823,1131.77Z" transform="translate(432.058 -1122.335)" fill="#b8bac7"/>
          <path id="패스_148" data-name="패스 148" d="M-366.567,1145.817h-9.347a4.45,4.45,0,0,0,4.6,4.49,4.313,4.313,0,0,0,3.477-1.576l.6.712a5.118,5.118,0,0,1-4.1,1.835,5.433,5.433,0,0,1-5.6-5.721c0-3.346,2.227-5.721,5.2-5.721s5.184,2.331,5.184,5.678C-366.546,1145.6-366.567,1145.709-366.567,1145.817Zm-9.326-.842h8.327a4.18,4.18,0,0,0-4.164-4.188A4.179,4.179,0,0,0-375.893,1144.975Z" transform="translate(399.333 -1135.174)" fill="#b8bac7"/>
          <path id="패스_149" data-name="패스 149" d="M-320.706,1145.817h-9.347a4.45,4.45,0,0,0,4.6,4.49,4.314,4.314,0,0,0,3.477-1.576l.6.712a5.118,5.118,0,0,1-4.1,1.835,5.433,5.433,0,0,1-5.6-5.721c0-3.346,2.227-5.721,5.2-5.721s5.184,2.331,5.184,5.678C-320.685,1145.6-320.706,1145.709-320.706,1145.817Zm-9.327-.842h8.327a4.18,4.18,0,0,0-4.163-4.188A4.179,4.179,0,0,0-330.032,1144.975Z" transform="translate(365.692 -1135.174)" fill="#b8bac7"/>
          <path id="패스_150" data-name="패스 150" d="M-280.3,1143.942a3.224,3.224,0,0,1-2.228.8,2.747,2.747,0,0,1-2.956-3.065v-7.362h-2v-.928h2v-2.461h1.041v2.461h3.456v.928h-3.456v7.254c0,1.447.687,2.245,2.019,2.245a2.445,2.445,0,0,0,1.686-.626Z" transform="translate(333.714 -1128.635)" fill="#b8bac7"/>
        </g>
      </g>
      <g id="그룹_4744" data-name="그룹 4744" transform="translate(-719.588 1098.022)">
        <g id="그룹_4743" data-name="그룹 4743" transform="translate(10.465)">
          <path id="패스_151" data-name="패스 151" d="M-674.882,1100.39l.818-2.368H-679.1l-1.214,3.571h3.741A1.785,1.785,0,0,0-674.882,1100.39Z" transform="translate(680.311 -1098.022)" fill="#b8bac7"/>
        </g>
        <path id="패스_152" data-name="패스 152" d="M-717.474,1129.421l2.381-6.867,1.486-4.285h-5.982v12.608a4.472,4.472,0,0,0,.749,2.482l.836-2.409Z" transform="translate(719.588 -1112.874)" fill="#b8bac7"/>
        <path id="패스_153" data-name="패스 153" d="M-698.555,1121.3h5.033l-.818,2.368a1.785,1.785,0,0,1-1.687,1.2h-3.741l-2.353,6.922-.7,2.074c-.149.44-.355,1.04-.512,1.5h0c.054,0,.106.008.161.008h12.609v-12.609a4.494,4.494,0,0,0-4.494-4.494H-697.5l-.178.513-.007.019-.07.2c-.278.8-.7,2.009-.8,2.3" transform="translate(707.668 -1112.874)" fill="#b8bac7"/>
      </g>
    </g>
  </g>
</svg>
